<svg width="115" height="45" viewBox="0 0 115 45" fill="none" xmlns="http://www.w3.org/2000/svg">
<path fill-rule="evenodd" clip-rule="evenodd" d="M112.579 10.023C112.018 10.7738 110.867 12.1876 110.023 13.1649C109.178 14.142 106.933 16.9472 105.035 19.3983C101.634 23.788 97.0507 29.362 95.9758 30.4159C95.4795 30.9022 95.3125 30.9029 94.2614 30.4226C93.6207 30.1299 92.7834 29.6639 92.4007 29.3873L91.7049 28.884L92.4758 27.6257C94.7909 23.8466 100.317 16.0941 104.58 10.6456C106.803 7.80418 107.836 6.2914 108.222 5.31201L108.76 3.94472L105.996 4.50701C104.476 4.81627 103.192 5.14821 103.144 5.24497C103.096 5.34172 103.351 5.55619 103.71 5.72196C105.04 6.33624 106.011 7.13129 105.853 7.47715C105.523 8.1981 98.7668 14.4626 94.6861 17.8301C83.0542 27.4302 72.5257 33.5969 59.5502 38.41C37.1221 46.7296 16.9127 47.1828 3.76369 39.6605C2.22586 38.7807 0.940151 37.9869 0.90633 37.8962C0.712599 37.3769 1.80248 37.7347 5.57618 39.4305C9.05831 40.9952 10.149 41.3827 11.8751 41.6692C17.6281 42.6241 24.2945 42.2931 34.8623 40.5274C40.9545 39.5095 46.3002 38.033 53.3136 35.4311C64.4708 31.2921 73.2133 26.4009 84.2892 18.102C88.5171 14.934 98.2945 6.75264 98.1897 6.47084C98.1619 6.39638 96.1792 6.86183 93.7838 7.50534C91.0208 8.24722 89.2282 8.58344 88.8802 8.42442C88.5785 8.28657 87.6401 7.66324 86.795 7.0391C85.9494 6.41509 85.1149 5.92227 84.9403 5.94417C84.7655 5.96632 84.7141 5.89139 84.826 5.77789C85.422 5.17355 97.1735 2.25007 104.72 0.828957L109.118 0.00082854L111.661 1.16287C114.151 2.30113 114.212 2.34613 114.614 3.35828C115.302 5.08947 114.635 7.27595 112.579 10.023Z" fill="url(#paint0_linear_1966_4968)"/>
<defs>
<linearGradient id="paint0_linear_1966_4968" x1="74.1702" y1="58.7343" x2="91.4453" y2="5.08955" gradientUnits="userSpaceOnUse">
<stop stop-color="#F5F5F5"/>
<stop offset="0.477732" stop-color="#DEBAF4"/>
<stop offset="1" stop-color="#B0CAFC"/>
</linearGradient>
</defs>
</svg>
