<svg width="337" height="317" viewBox="0 0 337 317" fill="none" xmlns="http://www.w3.org/2000/svg">
<path d="M164.293 234.586C193.174 234.586 216.586 211.174 216.586 182.293C216.586 153.412 193.174 130 164.293 130C135.412 130 112 153.412 112 182.293C112 211.174 135.412 234.586 164.293 234.586Z" fill="url(#paint0_radial_149_561)"/>
<path style="mix-blend-mode:overlay" d="M164.293 234.586C193.174 234.586 216.586 211.174 216.586 182.293C216.586 153.412 193.174 130 164.293 130C135.412 130 112 153.412 112 182.293C112 211.174 135.412 234.586 164.293 234.586Z" fill="url(#paint1_radial_149_561)"/>
<path style="mix-blend-mode:soft-light" d="M164.293 234.586C193.174 234.586 216.586 211.174 216.586 182.293C216.586 153.412 193.174 130 164.293 130C135.412 130 112 153.412 112 182.293C112 211.174 135.412 234.586 164.293 234.586Z" fill="url(#paint2_radial_149_561)"/>
<g filter="url(#filter0_f_149_561)">
<path d="M190.249 163.748C191.722 157.621 183.062 150.285 170.907 147.361C158.751 144.438 147.703 147.034 146.229 153.16C144.756 159.287 153.416 166.623 165.571 169.547C177.727 172.47 188.775 169.874 190.249 163.748Z" fill="#91A4C9"/>
</g>
<g filter="url(#filter1_f_149_561)">
<path d="M140.313 172.701C141.253 172.701 142.015 171.939 142.015 170.999C142.015 170.059 141.253 169.297 140.313 169.297C139.373 169.297 138.611 170.059 138.611 170.999C138.611 171.939 139.373 172.701 140.313 172.701Z" fill="white"/>
</g>
<g filter="url(#filter2_f_149_561)">
<path d="M154.211 148.676C154.958 148.546 155.49 148.025 155.401 147.512C155.311 146.998 154.634 146.688 153.887 146.818C153.14 146.948 152.608 147.469 152.697 147.983C152.787 148.496 153.464 148.807 154.211 148.676Z" fill="white"/>
</g>
<g filter="url(#filter3_f_149_561)">
<path d="M158.693 148.417C159.906 148.206 160.777 147.392 160.639 146.598C160.501 145.805 159.405 145.333 158.192 145.545C156.979 145.756 156.107 146.571 156.245 147.364C156.384 148.157 157.479 148.629 158.693 148.417Z" fill="white"/>
</g>
<g filter="url(#filter4_f_149_561)">
<path fill-rule="evenodd" clip-rule="evenodd" d="M149.007 161.31C149.867 161.01 151.397 160.923 152.308 160.915C152.527 160.913 152.749 160.876 152.968 160.8C154.04 160.426 154.607 159.253 154.233 158.18C153.859 157.108 152.686 156.541 151.613 156.915C151.071 157.105 150.223 157.028 149.769 156.675C149.077 156.137 148.135 155.95 147.246 156.26C145.851 156.747 145.115 158.271 145.601 159.666C146.088 161.06 147.612 161.796 149.007 161.31ZM159.448 159.631C159.342 159.738 159.115 159.687 159.066 159.545C158.691 158.472 157.519 157.906 156.446 158.28C155.373 158.654 154.807 159.827 155.181 160.899C155.555 161.972 156.728 162.538 157.801 162.164C158.106 162.058 158.37 161.887 158.584 161.671C158.69 161.564 158.917 161.616 158.966 161.758C159.34 162.83 160.513 163.397 161.586 163.023C161.802 162.947 162.055 163.024 162.218 163.185C162.624 163.586 163.293 163.734 163.934 163.511C164.316 163.377 164.845 163.417 165.209 163.593C165.439 163.705 165.714 163.792 166.015 163.842C166.912 163.99 167.699 163.747 167.773 163.299C167.847 162.851 167.18 162.367 166.284 162.219C166.092 162.187 165.905 162.173 165.729 162.176C165.425 162.18 165.114 161.896 165.013 161.609C164.752 160.858 163.844 160.492 162.986 160.792C162.978 160.794 162.971 160.797 162.964 160.799C162.955 160.802 162.946 160.797 162.945 160.788C162.926 160.659 162.895 160.531 162.851 160.403C162.477 159.331 161.304 158.764 160.231 159.138C159.926 159.245 159.662 159.416 159.448 159.631ZM179.599 169.216C179.973 170.289 179.407 171.462 178.334 171.836C177.262 172.21 176.089 171.644 175.715 170.571C175.551 170.103 175.049 169.65 174.583 169.48C174.194 169.337 173.881 169.05 173.745 168.658C173.71 168.557 173.688 168.454 173.679 168.351C173.649 168.019 173.395 167.635 173.066 167.58C172.169 167.432 171.503 166.949 171.577 166.5C171.651 166.052 172.438 165.809 173.335 165.957C174.03 166.072 174.586 166.388 174.767 166.734C174.778 166.754 174.802 166.765 174.824 166.757C175.683 166.458 176.59 166.824 176.852 167.575C176.891 167.686 176.914 167.799 176.921 167.912C176.923 167.941 176.952 167.961 176.98 167.952C178.052 167.578 179.225 168.144 179.599 169.216Z" fill="white" fill-opacity="0.5"/>
</g>
<defs>
<filter id="filter0_f_149_561" x="-0.0039978" y="0.0896301" width="336.487" height="316.729" filterUnits="userSpaceOnUse" color-interpolation-filters="sRGB">
<feFlood flood-opacity="0" result="BackgroundImageFix"/>
<feBlend mode="normal" in="SourceGraphic" in2="BackgroundImageFix" result="shape"/>
<feGaussianBlur stdDeviation="73.0352" result="effect1_foregroundBlur_149_561"/>
</filter>
<filter id="filter1_f_149_561" x="130.821" y="161.507" width="18.9842" height="18.9845" filterUnits="userSpaceOnUse" color-interpolation-filters="sRGB">
<feFlood flood-opacity="0" result="BackgroundImageFix"/>
<feBlend mode="normal" in="SourceGraphic" in2="BackgroundImageFix" result="shape"/>
<feGaussianBlur stdDeviation="3.89521" result="effect1_foregroundBlur_149_561"/>
</filter>
<filter id="filter2_f_149_561" x="144.897" y="138.998" width="18.3045" height="17.4988" filterUnits="userSpaceOnUse" color-interpolation-filters="sRGB">
<feFlood flood-opacity="0" result="BackgroundImageFix"/>
<feBlend mode="normal" in="SourceGraphic" in2="BackgroundImageFix" result="shape"/>
<feGaussianBlur stdDeviation="3.89521" result="effect1_foregroundBlur_149_561"/>
</filter>
<filter id="filter3_f_149_561" x="148.441" y="137.704" width="20.0027" height="18.5546" filterUnits="userSpaceOnUse" color-interpolation-filters="sRGB">
<feFlood flood-opacity="0" result="BackgroundImageFix"/>
<feBlend mode="normal" in="SourceGraphic" in2="BackgroundImageFix" result="shape"/>
<feGaussianBlur stdDeviation="3.89521" result="effect1_foregroundBlur_149_561"/>
</filter>
<filter id="filter4_f_149_561" x="137.683" y="148.342" width="49.7985" height="31.3769" filterUnits="userSpaceOnUse" color-interpolation-filters="sRGB">
<feFlood flood-opacity="0" result="BackgroundImageFix"/>
<feBlend mode="normal" in="SourceGraphic" in2="BackgroundImageFix" result="shape"/>
<feGaussianBlur stdDeviation="3.88395" result="effect1_foregroundBlur_149_561"/>
</filter>
<radialGradient id="paint0_radial_149_561" cx="0" cy="0" r="1" gradientUnits="userSpaceOnUse" gradientTransform="translate(148.977 171.463) rotate(25.085) scale(117.87 114.42)">
<stop offset="0.354167" stop-color="white"/>
<stop offset="0.810035" stop-color="#91A4C9"/>
</radialGradient>
<radialGradient id="paint1_radial_149_561" cx="0" cy="0" r="1" gradientUnits="userSpaceOnUse" gradientTransform="translate(139.848 214.319) rotate(-53.858) scale(68.2032 76.2228)">
<stop stop-opacity="0.61"/>
<stop offset="1" stop-opacity="0"/>
</radialGradient>
<radialGradient id="paint2_radial_149_561" cx="0" cy="0" r="1" gradientUnits="userSpaceOnUse" gradientTransform="translate(196.628 182.293) rotate(180) scale(89.2697 71.8246)">
<stop stop-color="white" stop-opacity="0"/>
<stop offset="0.827012" stop-color="white" stop-opacity="0"/>
<stop offset="1" stop-color="white"/>
</radialGradient>
</defs>
</svg>
