<svg width="293" height="292" viewBox="0 0 293 292" fill="none" xmlns="http://www.w3.org/2000/svg">
<g filter="url(#filter0_f_44_472)">
<ellipse cx="146.339" cy="146.128" rx="37.3589" ry="37.3589" fill="#91A4C9" fill-opacity="0.68"/>
</g>
<circle cx="157.141" cy="108.769" r="55.1411" fill="url(#paint0_radial_44_472)"/>
<circle cx="157.141" cy="108.769" r="55.1411" fill="url(#paint1_radial_44_472)" style="mix-blend-mode:overlay"/>
<circle cx="157.141" cy="108.769" r="55.1411" fill="url(#paint2_radial_44_472)" style="mix-blend-mode:soft-light"/>
<g filter="url(#filter1_f_44_472)">
<ellipse cx="161.302" cy="83.6314" rx="12.0304" ry="23.87" transform="rotate(-76.4765 161.302 83.6314)" fill="#74819B"/>
<path d="M163.998 72.4207C170.347 73.9477 175.759 76.6225 179.378 79.6889C183.022 82.7762 184.733 86.1476 184.024 89.0963C183.314 92.045 180.258 94.2699 175.609 95.3625C170.991 96.4477 164.954 96.3691 158.605 94.8421C152.256 93.315 146.844 90.6403 143.225 87.5738C139.581 84.4865 137.87 81.1151 138.58 78.1665C139.289 75.2178 142.345 72.9929 146.995 71.9003C151.613 70.815 157.649 70.8937 163.998 72.4207Z" stroke="black"/>
</g>
<g filter="url(#filter2_f_44_472)">
<ellipse cx="131.854" cy="96.8597" rx="1.79453" ry="1.79453" fill="white"/>
</g>
<g filter="url(#filter3_f_44_472)">
<ellipse cx="146.338" cy="72.3415" rx="1.44698" ry="0.994801" transform="rotate(-9.88469 146.338 72.3415)" fill="white"/>
</g>
<g filter="url(#filter4_f_44_472)">
<ellipse cx="150.972" cy="71.5338" rx="2.35135" ry="1.53742" transform="rotate(-9.88469 150.972 71.5338)" fill="white"/>
</g>
<g filter="url(#filter5_f_44_472)">
<path fill-rule="evenodd" clip-rule="evenodd" d="M141.021 86.6427C141.091 86.6183 141.16 86.5914 141.226 86.5622C142.019 86.2152 143.42 86.1359 144.282 86.2171C144.583 86.2454 144.894 86.211 145.198 86.105C146.329 85.7106 146.926 84.4739 146.532 83.3429C146.138 82.2118 144.901 81.6147 143.77 82.0092C143.198 82.2087 142.304 82.1278 141.826 81.7559C141.096 81.1884 140.102 80.991 139.164 81.3181C137.694 81.8309 136.918 83.4385 137.43 84.9089C137.943 86.3792 139.551 87.1555 141.021 86.6427ZM152.031 84.8725C151.919 84.9853 151.68 84.9313 151.627 84.7813C151.233 83.6503 149.996 83.0532 148.865 83.4476C147.734 83.8421 147.137 85.0788 147.532 86.2098C147.926 87.3408 149.163 87.938 150.294 87.5435C150.616 87.4312 150.894 87.2508 151.119 87.0239C151.231 86.9111 151.47 86.9651 151.523 87.1151C151.917 88.2461 153.154 88.8432 154.285 88.4488C154.513 88.3692 154.78 88.4501 154.952 88.6199C155.381 89.0433 156.086 89.1988 156.762 88.9632C157.164 88.8228 157.722 88.8644 158.105 89.0504C158.348 89.1679 158.638 89.2603 158.956 89.3128C159.901 89.4692 160.731 89.2127 160.809 88.74C160.887 88.2673 160.184 87.7573 159.239 87.601C159.037 87.5675 158.84 87.553 158.654 87.5554C158.334 87.5595 158.005 87.2607 157.9 86.9583C157.624 86.1665 156.666 85.7805 155.762 86.0961C155.74 86.1035 155.718 86.0898 155.714 86.0676C155.694 85.9402 155.662 85.8127 155.618 85.6866C155.224 84.5556 153.987 83.9585 152.856 84.3529C152.534 84.4652 152.256 84.6456 152.031 84.8725ZM173.279 94.98C173.674 96.111 173.077 97.3477 171.946 97.7421C170.815 98.1366 169.578 97.5394 169.183 96.4084C169.011 95.9149 168.481 95.4368 167.991 95.2572C167.58 95.107 167.251 94.8044 167.107 94.3914C167.069 94.2849 167.047 94.1764 167.037 94.0676C167.006 93.7176 166.737 93.3121 166.39 93.2547C165.445 93.0984 164.742 92.5884 164.82 92.1157C164.898 91.643 165.728 91.3865 166.674 91.5429C167.406 91.6641 167.993 91.9977 168.184 92.3617C168.196 92.3837 168.222 92.3947 168.245 92.3865C169.15 92.0709 170.107 92.457 170.383 93.2487C170.424 93.3659 170.448 93.4854 170.456 93.605C170.458 93.6355 170.488 93.6563 170.517 93.6463C171.648 93.2518 172.885 93.8489 173.279 94.98Z" fill="white" fill-opacity="0.5"/>
</g>
<mask id="mask0_44_472" style="mask-type:alpha" maskUnits="userSpaceOnUse" x="102" y="53" width="111" height="111">
<circle cx="157.141" cy="108.769" r="55.1411" fill="url(#paint3_radial_44_472)"/>
<circle cx="157.141" cy="108.769" r="55.1411" fill="url(#paint4_radial_44_472)"/>
<circle cx="157.141" cy="108.769" r="55.1411" fill="url(#paint5_radial_44_472)"/>
</mask>
<g mask="url(#mask0_44_472)">
<g filter="url(#filter6_f_44_472)">
<path d="M200.262 95.0652C200.262 95.0652 211.665 112.016 212.282 119.567C198.413 196.769 126.95 191.366 149.41 169.956C177.32 143.352 200.262 142.37 200.262 95.0652Z" fill="white" fill-opacity="0.08"/>
</g>
</g>
<defs>
<filter id="filter0_f_44_472" x="0.546654" y="0.334984" width="291.585" height="291.585" filterUnits="userSpaceOnUse" color-interpolation-filters="sRGB">
<feFlood flood-opacity="0" result="BackgroundImageFix"/>
<feBlend mode="normal" in="SourceGraphic" in2="BackgroundImageFix" result="shape"/>
<feGaussianBlur stdDeviation="54.2169" result="effect1_foregroundBlur_44_472"/>
</filter>
<filter id="filter1_f_44_472" x="76.3108" y="9.05784" width="169.981" height="149.147" filterUnits="userSpaceOnUse" color-interpolation-filters="sRGB">
<feFlood flood-opacity="0" result="BackgroundImageFix"/>
<feBlend mode="normal" in="SourceGraphic" in2="BackgroundImageFix" result="shape"/>
<feGaussianBlur stdDeviation="30.8051" result="effect1_foregroundBlur_44_472"/>
</filter>
<filter id="filter2_f_44_472" x="126.774" y="91.7793" width="10.1606" height="10.1609" filterUnits="userSpaceOnUse" color-interpolation-filters="sRGB">
<feFlood flood-opacity="0" result="BackgroundImageFix"/>
<feBlend mode="normal" in="SourceGraphic" in2="BackgroundImageFix" result="shape"/>
<feGaussianBlur stdDeviation="1.64294" result="effect1_foregroundBlur_44_472"/>
</filter>
<filter id="filter3_f_44_472" x="141.616" y="68.0444" width="9.44382" height="8.59421" filterUnits="userSpaceOnUse" color-interpolation-filters="sRGB">
<feFlood flood-opacity="0" result="BackgroundImageFix"/>
<feBlend mode="normal" in="SourceGraphic" in2="BackgroundImageFix" result="shape"/>
<feGaussianBlur stdDeviation="1.64294" result="effect1_foregroundBlur_44_472"/>
</filter>
<filter id="filter4_f_44_472" x="145.355" y="66.6802" width="11.2348" height="9.70724" filterUnits="userSpaceOnUse" color-interpolation-filters="sRGB">
<feFlood flood-opacity="0" result="BackgroundImageFix"/>
<feBlend mode="normal" in="SourceGraphic" in2="BackgroundImageFix" result="shape"/>
<feGaussianBlur stdDeviation="1.64294" result="effect1_foregroundBlur_44_472"/>
</filter>
<filter id="filter5_f_44_472" x="133.996" y="77.8838" width="42.6817" height="23.2564" filterUnits="userSpaceOnUse" color-interpolation-filters="sRGB">
<feFlood flood-opacity="0" result="BackgroundImageFix"/>
<feBlend mode="normal" in="SourceGraphic" in2="BackgroundImageFix" result="shape"/>
<feGaussianBlur stdDeviation="1.63819" result="effect1_foregroundBlur_44_472"/>
</filter>
<filter id="filter6_f_44_472" x="140.147" y="90.1364" width="77.0637" height="98.5698" filterUnits="userSpaceOnUse" color-interpolation-filters="sRGB">
<feFlood flood-opacity="0" result="BackgroundImageFix"/>
<feBlend mode="normal" in="SourceGraphic" in2="BackgroundImageFix" result="shape"/>
<feGaussianBlur stdDeviation="2.46441" result="effect1_foregroundBlur_44_472"/>
</filter>
<radialGradient id="paint0_radial_44_472" cx="0" cy="0" r="1" gradientUnits="userSpaceOnUse" gradientTransform="translate(140.99 97.3492) rotate(25.085) scale(124.289 120.651)">
<stop offset="0.354167" stop-color="#91A4C9"/>
<stop offset="0.810035" stop-color="#454D5D"/>
</radialGradient>
<radialGradient id="paint1_radial_44_472" cx="0" cy="0" r="1" gradientUnits="userSpaceOnUse" gradientTransform="translate(131.365 142.539) rotate(-53.858) scale(71.9176 80.3739)">
<stop stop-opacity="0.61"/>
<stop offset="1" stop-opacity="0"/>
</radialGradient>
<radialGradient id="paint2_radial_44_472" cx="0" cy="0" r="1" gradientUnits="userSpaceOnUse" gradientTransform="translate(191.237 108.769) rotate(180) scale(94.1313 75.7362)">
<stop stop-color="white" stop-opacity="0"/>
<stop offset="0.827012" stop-color="white" stop-opacity="0"/>
<stop offset="1" stop-color="white"/>
</radialGradient>
<radialGradient id="paint3_radial_44_472" cx="0" cy="0" r="1" gradientUnits="userSpaceOnUse" gradientTransform="translate(140.99 97.3492) rotate(25.085) scale(124.289 120.651)">
<stop offset="0.354167" stop-color="#91A4C9"/>
<stop offset="0.810035" stop-color="#485264"/>
</radialGradient>
<radialGradient id="paint4_radial_44_472" cx="0" cy="0" r="1" gradientUnits="userSpaceOnUse" gradientTransform="translate(131.365 142.539) rotate(-53.858) scale(71.9176 80.3739)">
<stop stop-opacity="0.61"/>
<stop offset="1" stop-opacity="0"/>
</radialGradient>
<radialGradient id="paint5_radial_44_472" cx="0" cy="0" r="1" gradientUnits="userSpaceOnUse" gradientTransform="translate(191.237 108.769) rotate(180) scale(94.1313 75.7362)">
<stop stop-color="white" stop-opacity="0"/>
<stop offset="0.827012" stop-color="white" stop-opacity="0"/>
<stop offset="1" stop-color="white"/>
</radialGradient>
</defs>
</svg>
