<svg width="143" height="134" viewBox="0 0 143 134" fill="none" xmlns="http://www.w3.org/2000/svg">
<ellipse cx="70.0564" cy="77.0564" rx="22.0564" ry="22.0564" fill="url(#paint0_radial_795_709)"/>
<ellipse cx="70.0564" cy="77.0564" rx="22.0564" ry="22.0564" fill="url(#paint1_radial_795_709)" style="mix-blend-mode:overlay"/>
<ellipse cx="70.0564" cy="77.0564" rx="22.0564" ry="22.0564" fill="url(#paint2_radial_795_709)" style="mix-blend-mode:soft-light"/>
<g filter="url(#filter0_f_795_709)">
<ellipse cx="71.7211" cy="67.0013" rx="4.81214" ry="9.54799" transform="rotate(-76.4765 71.7211 67.0013)" fill="#74819B"/>
<path d="M72.7294 62.8087C75.2333 63.4109 77.3528 64.4629 78.7578 65.6532C80.1874 66.8644 80.7613 68.1064 80.5182 69.1171C80.2751 70.1278 79.1993 70.973 77.3752 71.4017C75.5826 71.823 73.2165 71.7961 70.7127 71.1939C68.2088 70.5917 66.0893 69.5397 64.6843 68.3494C63.2547 67.1382 62.6808 65.8962 62.9239 64.8855C63.167 63.8748 64.2428 63.0295 66.0669 62.6009C67.8595 62.1796 70.2256 62.2065 72.7294 62.8087Z" stroke="black"/>
</g>
<g filter="url(#filter1_f_795_709)">
<circle cx="59.9414" cy="72.293" r="0.717813" fill="white"/>
</g>
<g filter="url(#filter2_f_795_709)">
<ellipse cx="65.7352" cy="62.485" rx="0.578793" ry="0.39792" transform="rotate(-9.88469 65.7352 62.485)" fill="white"/>
</g>
<g filter="url(#filter3_f_795_709)">
<ellipse cx="67.5888" cy="62.1622" rx="0.940539" ry="0.614968" transform="rotate(-9.88469 67.5888 62.1622)" fill="white"/>
</g>
<g filter="url(#filter4_f_795_709)">
<path fill-rule="evenodd" clip-rule="evenodd" d="M63.6085 68.2057C63.9712 68.0792 64.6167 68.0424 65.0008 68.0392C65.0933 68.0384 65.1872 68.0227 65.2793 67.9906C65.7318 67.8328 65.9706 67.3382 65.8128 66.8857C65.655 66.4333 65.1604 66.1945 64.708 66.3523C64.4791 66.4321 64.1216 66.3997 63.9303 66.251C63.6384 66.024 63.2409 65.945 62.8657 66.0759C62.2776 66.281 61.9671 66.924 62.1722 67.5122C62.3773 68.1003 63.0204 68.4108 63.6085 68.2057ZM68.0124 67.4977C67.9676 67.5429 67.8717 67.5212 67.8508 67.4612C67.693 67.0088 67.1983 66.7699 66.7459 66.9277C66.2935 67.0855 66.0547 67.5802 66.2124 68.0326C66.3702 68.485 66.8649 68.7238 67.3173 68.5661C67.4461 68.5211 67.5576 68.4489 67.6475 68.3582C67.6923 68.313 67.7882 68.3346 67.8091 68.3947C67.9669 68.8471 68.4616 69.0859 68.914 68.9282C69.0053 68.8963 69.1123 68.9287 69.1811 68.9966C69.3526 69.166 69.6345 69.2282 69.9048 69.134C70.0658 69.0778 70.2886 69.0945 70.4421 69.169C70.5391 69.216 70.6553 69.253 70.7824 69.2741C71.1606 69.3366 71.4925 69.234 71.5238 69.0449C71.5551 68.8558 71.2739 68.6519 70.8957 68.5893C70.8149 68.576 70.7362 68.5701 70.6621 68.5711C70.5339 68.5727 70.4024 68.4531 70.3601 68.332C70.2497 68.0153 69.8668 67.8609 69.5048 67.9871C69.4963 67.9902 69.4871 67.9846 69.4857 67.9757C69.4777 67.9247 69.4651 67.8737 69.4475 67.8233C69.2897 67.3709 68.795 67.132 68.3426 67.2898C68.2138 67.3347 68.1023 67.4069 68.0124 67.4977ZM76.5117 71.5407C76.6695 71.9931 76.4306 72.4877 75.9782 72.6455C75.5258 72.8033 75.0311 72.5644 74.8733 72.112C74.8045 71.9146 74.5926 71.7234 74.3962 71.6515C74.232 71.5914 74.1004 71.4704 74.0428 71.3052C74.0279 71.2626 74.0187 71.2193 74.0149 71.1758C74.0024 71.0357 73.8949 70.8735 73.7562 70.8506C73.378 70.788 73.0968 70.584 73.1281 70.3949C73.1593 70.2059 73.4913 70.1033 73.8694 70.1658C74.1625 70.2143 74.3974 70.3477 74.4737 70.4933C74.4783 70.5022 74.4887 70.5066 74.4981 70.5033C74.86 70.3771 75.243 70.5315 75.3534 70.8481C75.3698 70.8951 75.3793 70.9429 75.3823 70.9908C75.3831 71.0029 75.3953 71.0112 75.4068 71.0072C75.8592 70.8494 76.3539 71.0882 76.5117 71.5407Z" fill="white" fill-opacity="0.5"/>
</g>
<mask id="mask0_795_709" style="mask-type:alpha" maskUnits="userSpaceOnUse" x="48" y="55" width="45" height="45">
<ellipse cx="70.0564" cy="77.0564" rx="22.0564" ry="22.0564" fill="url(#paint3_radial_795_709)"/>
<ellipse cx="70.0564" cy="77.0564" rx="22.0564" ry="22.0564" fill="url(#paint4_radial_795_709)"/>
<ellipse cx="70.0564" cy="77.0564" rx="22.0564" ry="22.0564" fill="url(#paint5_radial_795_709)"/>
</mask>
<g mask="url(#mask0_795_709)">
<g filter="url(#filter5_f_795_709)">
<path d="M87.3049 71.5752C87.3049 71.5752 91.8662 78.3555 92.1127 81.3758C86.5653 112.257 57.9802 110.095 66.964 101.532C78.1282 90.8898 87.3049 90.497 87.3049 71.5752Z" fill="white" fill-opacity="0.08"/>
</g>
</g>
<defs>
<filter id="filter0_f_795_709" x="0.759014" y="0.205791" width="141.924" height="133.591" filterUnits="userSpaceOnUse" color-interpolation-filters="sRGB">
<feFlood flood-opacity="0" result="BackgroundImageFix"/>
<feBlend mode="normal" in="SourceGraphic" in2="BackgroundImageFix" result="shape"/>
<feGaussianBlur stdDeviation="30.8051" result="effect1_foregroundBlur_795_709"/>
</filter>
<filter id="filter1_f_795_709" x="55.9378" y="68.2893" width="8.00729" height="8.00729" filterUnits="userSpaceOnUse" color-interpolation-filters="sRGB">
<feFlood flood-opacity="0" result="BackgroundImageFix"/>
<feBlend mode="normal" in="SourceGraphic" in2="BackgroundImageFix" result="shape"/>
<feGaussianBlur stdDeviation="1.64294" result="effect1_foregroundBlur_795_709"/>
</filter>
<filter id="filter2_f_795_709" x="61.8753" y="58.7947" width="7.72018" height="7.38083" filterUnits="userSpaceOnUse" color-interpolation-filters="sRGB">
<feFlood flood-opacity="0" result="BackgroundImageFix"/>
<feBlend mode="normal" in="SourceGraphic" in2="BackgroundImageFix" result="shape"/>
<feGaussianBlur stdDeviation="1.64294" result="effect1_foregroundBlur_795_709"/>
</filter>
<filter id="filter3_f_795_709" x="63.3704" y="58.2493" width="8.43698" height="7.82565" filterUnits="userSpaceOnUse" color-interpolation-filters="sRGB">
<feFlood flood-opacity="0" result="BackgroundImageFix"/>
<feBlend mode="normal" in="SourceGraphic" in2="BackgroundImageFix" result="shape"/>
<feGaussianBlur stdDeviation="1.64294" result="effect1_foregroundBlur_795_709"/>
</filter>
<filter id="filter4_f_795_709" x="58.833" y="62.7363" width="21.0039" height="13.2344" filterUnits="userSpaceOnUse" color-interpolation-filters="sRGB">
<feFlood flood-opacity="0" result="BackgroundImageFix"/>
<feBlend mode="normal" in="SourceGraphic" in2="BackgroundImageFix" result="shape"/>
<feGaussianBlur stdDeviation="1.63819" result="effect1_foregroundBlur_795_709"/>
</filter>
<filter id="filter5_f_795_709" x="60.3017" y="66.6464" width="36.7395" height="45.3425" filterUnits="userSpaceOnUse" color-interpolation-filters="sRGB">
<feFlood flood-opacity="0" result="BackgroundImageFix"/>
<feBlend mode="normal" in="SourceGraphic" in2="BackgroundImageFix" result="shape"/>
<feGaussianBlur stdDeviation="2.46441" result="effect1_foregroundBlur_795_709"/>
</filter>
<radialGradient id="paint0_radial_795_709" cx="0" cy="0" r="1" gradientUnits="userSpaceOnUse" gradientTransform="translate(63.5961 72.4885) rotate(25.085) scale(49.7156 48.2604)">
<stop offset="0.354167" stop-color="#91A4C9"/>
<stop offset="0.810035" stop-color="#454D5D"/>
</radialGradient>
<radialGradient id="paint1_radial_795_709" cx="0" cy="0" r="1" gradientUnits="userSpaceOnUse" gradientTransform="translate(59.746 90.5643) rotate(-53.858) scale(28.767 32.1496)">
<stop stop-opacity="0.61"/>
<stop offset="1" stop-opacity="0"/>
</radialGradient>
<radialGradient id="paint2_radial_795_709" cx="0" cy="0" r="1" gradientUnits="userSpaceOnUse" gradientTransform="translate(83.6949 77.0564) rotate(180) scale(37.6525 30.2945)">
<stop stop-color="white" stop-opacity="0"/>
<stop offset="0.827012" stop-color="white" stop-opacity="0"/>
<stop offset="1" stop-color="white"/>
</radialGradient>
<radialGradient id="paint3_radial_795_709" cx="0" cy="0" r="1" gradientUnits="userSpaceOnUse" gradientTransform="translate(63.5961 72.4885) rotate(25.085) scale(49.7156 48.2604)">
<stop offset="0.354167" stop-color="#91A4C9"/>
<stop offset="0.810035" stop-color="#485264"/>
</radialGradient>
<radialGradient id="paint4_radial_795_709" cx="0" cy="0" r="1" gradientUnits="userSpaceOnUse" gradientTransform="translate(59.746 90.5643) rotate(-53.858) scale(28.767 32.1496)">
<stop stop-opacity="0.61"/>
<stop offset="1" stop-opacity="0"/>
</radialGradient>
<radialGradient id="paint5_radial_795_709" cx="0" cy="0" r="1" gradientUnits="userSpaceOnUse" gradientTransform="translate(83.6949 77.0564) rotate(180) scale(37.6525 30.2945)">
<stop stop-color="white" stop-opacity="0"/>
<stop offset="0.827012" stop-color="white" stop-opacity="0"/>
<stop offset="1" stop-color="white"/>
</radialGradient>
</defs>
</svg>
