<svg width="212" height="231" viewBox="0 0 212 231" fill="none" xmlns="http://www.w3.org/2000/svg">
<circle cx="100" cy="131" r="100" fill="url(#paint0_radial_44_495)"/>
<circle cx="100" cy="131" r="100" fill="url(#paint1_radial_44_495)" style="mix-blend-mode:overlay"/>
<circle cx="100" cy="131" r="100" fill="url(#paint2_radial_44_495)" style="mix-blend-mode:soft-light"/>
<g filter="url(#filter0_f_44_495)">
<ellipse cx="107.545" cy="85.4122" rx="21.8174" ry="43.2889" transform="rotate(-76.4765 107.545 85.4122)" fill="#74819B"/>
<path d="M112.53 64.6858C124.093 67.4668 133.969 72.3419 140.591 77.9521C147.237 83.5831 150.489 89.8417 149.148 95.4181C147.806 100.994 142.065 105.09 133.584 107.083C125.135 109.068 114.123 108.92 102.56 106.139C90.9973 103.358 81.1215 98.4825 74.4995 92.8722C67.8529 87.2412 64.6013 80.9826 65.9425 75.4062C67.2837 69.8299 73.0255 65.7343 81.5058 63.7414C89.9547 61.756 100.967 61.9048 112.53 64.6858Z" stroke="black"/>
</g>
<g filter="url(#filter1_f_44_495)">
<ellipse cx="54.1412" cy="109.402" rx="3.25444" ry="3.25444" fill="white"/>
</g>
<g filter="url(#filter2_f_44_495)">
<ellipse cx="80.4105" cy="64.9374" rx="2.62415" ry="1.8041" transform="rotate(-9.88469 80.4105 64.9374)" fill="white"/>
</g>
<g filter="url(#filter3_f_44_495)">
<ellipse cx="88.8124" cy="63.4729" rx="4.26424" ry="2.78816" transform="rotate(-9.88469 88.8124 63.4729)" fill="white"/>
</g>
<g filter="url(#filter4_f_44_495)">
<path fill-rule="evenodd" clip-rule="evenodd" d="M70.7672 90.8733C71.4298 90.6422 72.0147 90.2885 72.5053 89.8464C73.1483 89.2671 74.3767 89.1992 75.1329 89.6202C76.0798 90.1474 77.239 90.2832 78.3428 89.8982C80.3939 89.1829 81.4768 86.9401 80.7615 84.889C80.0461 82.8378 77.8034 81.7549 75.7522 82.4702C75.5797 82.5304 75.4141 82.6014 75.2558 82.6821C74.4843 83.0756 73.2582 82.9652 72.6345 82.3644C71.29 81.0693 69.2826 80.5601 67.3995 81.2169C64.7329 82.1469 63.3252 85.0624 64.2551 87.7289C65.1851 90.3955 68.1006 91.8032 70.7672 90.8733ZM90.7338 87.663C90.531 87.8677 90.0967 87.7697 90.0018 87.4977C89.2865 85.4465 87.0437 84.3636 84.9926 85.079C82.9414 85.7943 81.8585 88.037 82.5739 90.0882C83.2892 92.1394 85.5319 93.2223 87.5831 92.5069C88.1669 92.3033 88.6722 91.976 89.08 91.5646C89.2829 91.36 89.7172 91.4579 89.812 91.73C90.5274 93.7811 92.7701 94.864 94.8213 94.1487C95.2348 94.0045 95.7195 94.151 96.031 94.4588C96.8085 95.2269 98.0869 95.5089 99.3122 95.0816C99.3569 95.066 99.401 95.0497 99.4447 95.0325C100.097 94.7762 101.003 94.8503 101.624 95.1762C102.087 95.4195 102.66 95.6112 103.292 95.7157C105.006 95.9993 106.511 95.5342 106.653 94.6769C106.795 93.8196 105.52 92.8947 103.805 92.6112C103.438 92.5505 103.081 92.5241 102.745 92.5285C102.164 92.5361 101.568 91.9941 101.377 91.4456C100.876 90.0098 99.1398 89.3097 97.4988 89.882C97.4608 89.8953 97.4197 89.8707 97.4135 89.8309C97.3773 89.5996 97.3198 89.3683 97.24 89.1394C96.5246 87.0882 94.2819 86.0053 92.2308 86.7207C91.647 86.9243 91.1416 87.2516 90.7338 87.663ZM129.268 105.993C129.983 108.044 128.901 110.287 126.849 111.002C124.798 111.718 122.556 110.635 121.84 108.584C121.805 108.484 121.775 108.384 121.749 108.284C121.545 107.508 120.754 106.787 119.977 106.589C119.095 106.364 118.37 105.773 118.074 104.926C118.007 104.733 117.965 104.536 117.948 104.339C117.891 103.704 117.404 102.968 116.775 102.864C115.061 102.581 113.786 101.656 113.928 100.799C114.069 99.9415 115.574 99.4764 117.289 99.7599C118.618 99.9797 119.683 100.585 120.028 101.245C120.049 101.285 120.096 101.305 120.139 101.29C121.78 100.718 123.516 101.418 124.017 102.853C124.091 103.066 124.134 103.283 124.148 103.5C124.151 103.555 124.207 103.593 124.259 103.574C126.31 102.859 128.553 103.942 129.268 105.993Z" fill="white" fill-opacity="0.5"/>
</g>
<mask id="mask0_44_495" style="mask-type:alpha" maskUnits="userSpaceOnUse" x="0" y="31" width="200" height="200">
<circle cx="100" cy="131" r="100" fill="url(#paint3_radial_44_495)"/>
<circle cx="100" cy="131" r="100" fill="url(#paint4_radial_44_495)"/>
<circle cx="100" cy="131" r="100" fill="url(#paint5_radial_44_495)"/>
</mask>
<g mask="url(#mask0_44_495)">
<g filter="url(#filter5_f_44_495)">
<path d="M178.203 106.148C178.203 106.148 198.883 136.888 200.001 150.582C174.849 290.592 45.2496 280.791 85.9808 241.965C136.597 193.717 178.203 191.936 178.203 106.148Z" fill="white" fill-opacity="0.08"/>
</g>
</g>
<defs>
<filter id="filter0_f_44_495" x="3.53343" y="0.292461" width="208.023" height="170.239" filterUnits="userSpaceOnUse" color-interpolation-filters="sRGB">
<feFlood flood-opacity="0" result="BackgroundImageFix"/>
<feBlend mode="normal" in="SourceGraphic" in2="BackgroundImageFix" result="shape"/>
<feGaussianBlur stdDeviation="30.8051" result="effect1_foregroundBlur_44_495"/>
</filter>
<filter id="filter1_f_44_495" x="47.6008" y="102.862" width="13.0805" height="13.0807" filterUnits="userSpaceOnUse" color-interpolation-filters="sRGB">
<feFlood flood-opacity="0" result="BackgroundImageFix"/>
<feBlend mode="normal" in="SourceGraphic" in2="BackgroundImageFix" result="shape"/>
<feGaussianBlur stdDeviation="1.64294" result="effect1_foregroundBlur_44_495"/>
</filter>
<filter id="filter2_f_44_495" x="74.5208" y="59.8176" width="11.7798" height="10.2396" filterUnits="userSpaceOnUse" color-interpolation-filters="sRGB">
<feFlood flood-opacity="0" result="BackgroundImageFix"/>
<feBlend mode="normal" in="SourceGraphic" in2="BackgroundImageFix" result="shape"/>
<feGaussianBlur stdDeviation="1.64294" result="effect1_foregroundBlur_44_495"/>
</filter>
<filter id="filter3_f_44_495" x="81.2981" y="57.3436" width="15.0288" height="12.2584" filterUnits="userSpaceOnUse" color-interpolation-filters="sRGB">
<feFlood flood-opacity="0" result="BackgroundImageFix"/>
<feBlend mode="normal" in="SourceGraphic" in2="BackgroundImageFix" result="shape"/>
<feGaussianBlur stdDeviation="1.64294" result="effect1_foregroundBlur_44_495"/>
</filter>
<filter id="filter4_f_44_495" x="60.6924" y="77.6539" width="72.0723" height="36.8453" filterUnits="userSpaceOnUse" color-interpolation-filters="sRGB">
<feFlood flood-opacity="0" result="BackgroundImageFix"/>
<feBlend mode="normal" in="SourceGraphic" in2="BackgroundImageFix" result="shape"/>
<feGaussianBlur stdDeviation="1.63819" result="effect1_foregroundBlur_44_495"/>
</filter>
<filter id="filter5_f_44_495" x="73.1923" y="101.219" width="131.738" height="170.74" filterUnits="userSpaceOnUse" color-interpolation-filters="sRGB">
<feFlood flood-opacity="0" result="BackgroundImageFix"/>
<feBlend mode="normal" in="SourceGraphic" in2="BackgroundImageFix" result="shape"/>
<feGaussianBlur stdDeviation="2.46441" result="effect1_foregroundBlur_44_495"/>
</filter>
<radialGradient id="paint0_radial_44_495" cx="0" cy="0" r="1" gradientUnits="userSpaceOnUse" gradientTransform="translate(70.7101 110.29) rotate(25.085) scale(225.402 218.804)">
<stop offset="0.354167" stop-color="#91A4C9"/>
<stop offset="0.810035" stop-color="#454D5D"/>
</radialGradient>
<radialGradient id="paint1_radial_44_495" cx="0" cy="0" r="1" gradientUnits="userSpaceOnUse" gradientTransform="translate(53.2544 192.243) rotate(-53.858) scale(130.425 145.76)">
<stop stop-opacity="0.61"/>
<stop offset="1" stop-opacity="0"/>
</radialGradient>
<radialGradient id="paint2_radial_44_495" cx="0" cy="0" r="1" gradientUnits="userSpaceOnUse" gradientTransform="translate(161.834 131) rotate(180) scale(170.71 137.35)">
<stop stop-color="white" stop-opacity="0"/>
<stop offset="0.827012" stop-color="white" stop-opacity="0"/>
<stop offset="1" stop-color="white"/>
</radialGradient>
<radialGradient id="paint3_radial_44_495" cx="0" cy="0" r="1" gradientUnits="userSpaceOnUse" gradientTransform="translate(70.7101 110.29) rotate(25.085) scale(225.402 218.804)">
<stop offset="0.354167" stop-color="#91A4C9"/>
<stop offset="0.810035" stop-color="#485264"/>
</radialGradient>
<radialGradient id="paint4_radial_44_495" cx="0" cy="0" r="1" gradientUnits="userSpaceOnUse" gradientTransform="translate(53.2544 192.243) rotate(-53.858) scale(130.425 145.76)">
<stop stop-opacity="0.61"/>
<stop offset="1" stop-opacity="0"/>
</radialGradient>
<radialGradient id="paint5_radial_44_495" cx="0" cy="0" r="1" gradientUnits="userSpaceOnUse" gradientTransform="translate(161.834 131) rotate(180) scale(170.71 137.35)">
<stop stop-color="white" stop-opacity="0"/>
<stop offset="0.827012" stop-color="white" stop-opacity="0"/>
<stop offset="1" stop-color="white"/>
</radialGradient>
</defs>
</svg>
