<svg width="143" height="134" viewBox="0 0 143 134" fill="none" xmlns="http://www.w3.org/2000/svg">
<g clip-path="url(#clip0_149_532)">
<path d="M70.0564 99.113C82.2378 99.113 92.1128 89.2381 92.1128 77.0566C92.1128 64.8752 82.2378 55.0002 70.0564 55.0002C57.875 55.0002 48 64.8752 48 77.0566C48 89.2381 57.875 99.113 70.0564 99.113Z" fill="url(#paint0_radial_149_532)"/>
<path style="mix-blend-mode:overlay" d="M70.0564 99.113C82.2378 99.113 92.1128 89.2381 92.1128 77.0566C92.1128 64.8752 82.2378 55.0002 70.0564 55.0002C57.875 55.0002 48 64.8752 48 77.0566C48 89.2381 57.875 99.113 70.0564 99.113Z" fill="url(#paint1_radial_149_532)"/>
<path style="mix-blend-mode:soft-light" d="M70.0564 99.113C82.2378 99.113 92.1128 89.2381 92.1128 77.0566C92.1128 64.8752 82.2378 55.0002 70.0564 55.0002C57.875 55.0002 48 64.8752 48 77.0566C48 89.2381 57.875 99.113 70.0564 99.113Z" fill="url(#paint2_radial_149_532)"/>
<g filter="url(#filter0_f_149_532)">
<path d="M81.0043 69.2344C81.6258 66.6504 77.9734 63.556 72.8463 62.3229C67.7193 61.0898 63.0593 62.1849 62.4378 64.7689C61.8163 67.3529 65.4688 70.4473 70.5958 71.6804C75.7228 72.9135 80.3828 71.8184 81.0043 69.2344Z" fill="#74819B"/>
<path d="M72.7297 62.8091C75.2336 63.4113 77.3531 64.4633 78.7581 65.6536C80.1877 66.8648 80.7616 68.1068 80.5185 69.1175C80.2754 70.1282 79.1996 70.9735 77.3755 71.4021C75.5829 71.8234 73.2168 71.7965 70.713 71.1943C68.2091 70.5921 66.0896 69.5401 64.6846 68.3498C63.255 67.1386 62.6811 65.8966 62.9242 64.8859C63.1673 63.8752 64.2431 63.0299 66.0672 62.6013C67.8598 62.18 70.2259 62.2069 72.7297 62.8091Z" stroke="black"/>
</g>
<g filter="url(#filter1_f_149_532)">
<path d="M59.9414 73.0108C60.3379 73.0108 60.6593 72.6894 60.6593 72.293C60.6593 71.8966 60.3379 71.5752 59.9414 71.5752C59.545 71.5752 59.2236 71.8966 59.2236 72.293C59.2236 72.6894 59.545 73.0108 59.9414 73.0108Z" fill="white"/>
</g>
<g filter="url(#filter2_f_149_532)">
<path d="M65.8035 62.8775C66.1184 62.8227 66.3431 62.6027 66.3054 62.3862C66.2677 62.1697 65.9818 62.0386 65.6669 62.0935C65.352 62.1484 65.1273 62.3684 65.165 62.5849C65.2027 62.8014 65.4886 62.9324 65.8035 62.8775Z" fill="white"/>
</g>
<g filter="url(#filter3_f_149_532)">
<path d="M67.6944 62.7684C68.2061 62.6792 68.5737 62.3357 68.5154 62.0011C68.4571 61.6665 67.9949 61.4675 67.4832 61.5567C66.9715 61.6459 66.6039 61.9894 66.6622 62.324C66.7205 62.6586 67.1826 62.8575 67.6944 62.7684Z" fill="white"/>
</g>
<g filter="url(#filter4_f_149_532)">
<path fill-rule="evenodd" clip-rule="evenodd" d="M63.6089 68.2063C63.9716 68.0798 64.6171 68.043 65.0012 68.0397C65.0937 68.039 65.1876 68.0233 65.2797 67.9912C65.7322 67.8334 65.971 67.3387 65.8132 66.8863C65.6554 66.4339 65.1608 66.195 64.7084 66.3528C64.4795 66.4326 64.122 66.4003 63.9307 66.2515C63.6388 66.0245 63.2413 65.9456 62.8661 66.0764C62.278 66.2815 61.9675 66.9246 62.1726 67.5127C62.3777 68.1009 63.0208 68.4114 63.6089 68.2063ZM68.0128 67.4982C67.968 67.5434 67.8721 67.5218 67.8512 67.4617C67.6934 67.0093 67.1987 66.7705 66.7463 66.9283C66.2939 67.086 66.0551 67.5807 66.2128 68.0331C66.3706 68.4855 66.8653 68.7244 67.3177 68.5666C67.4465 68.5217 67.558 68.4495 67.6479 68.3587C67.6927 68.3135 67.7886 68.3352 67.8095 68.3952C67.9673 68.8476 68.462 69.0865 68.9144 68.9287C69.0057 68.8969 69.1127 68.9292 69.1815 68.9972C69.353 69.1666 69.6349 69.2288 69.9052 69.1345C70.0662 69.0784 70.289 69.095 70.4424 69.1694C70.5394 69.2164 70.6555 69.2534 70.7826 69.2744C71.1608 69.3369 71.4927 69.2343 71.524 69.0453C71.5552 68.8562 71.274 68.6522 70.8958 68.5896C70.815 68.5763 70.7363 68.5705 70.6622 68.5714C70.5341 68.573 70.4027 68.4535 70.3605 68.3325C70.2501 68.0159 69.8672 67.8615 69.5052 67.9877C69.4967 67.9908 69.4875 67.9852 69.4861 67.9762C69.4781 67.9253 69.4655 67.8743 69.4479 67.8238C69.2901 67.3714 68.7954 67.1326 68.343 67.2904C68.2142 67.3353 68.1027 67.4075 68.0128 67.4982ZM76.5121 71.5412C76.6699 71.9936 76.431 72.4883 75.9786 72.6461C75.5262 72.8038 75.0315 72.565 74.8737 72.1126C74.8049 71.9152 74.593 71.7239 74.3966 71.6521C74.2324 71.592 74.1008 71.4709 74.0432 71.3058C74.0283 71.2632 74.0191 71.2198 74.0153 71.1763C74.0028 71.0363 73.8953 70.874 73.7566 70.8511C73.3784 70.7886 73.0972 70.5846 73.1285 70.3955C73.1597 70.2064 73.4917 70.1038 73.8698 70.1664C74.1629 70.2148 74.3978 70.3483 74.4741 70.4939C74.4787 70.5027 74.4891 70.5071 74.4985 70.5038C74.8604 70.3776 75.2434 70.532 75.3538 70.8487C75.3702 70.8956 75.3797 70.9434 75.3827 70.9913C75.3835 71.0035 75.3957 71.0117 75.4072 71.0077C75.8596 70.8499 76.3543 71.0888 76.5121 71.5412Z" fill="white" fill-opacity="0.5"/>
</g>
<mask id="mask0_149_532" style="mask-type:alpha" maskUnits="userSpaceOnUse" x="48" y="55" width="45" height="45">
<path d="M70.0564 99.113C82.2378 99.113 92.1128 89.2381 92.1128 77.0566C92.1128 64.8752 82.2378 55.0002 70.0564 55.0002C57.875 55.0002 48 64.8752 48 77.0566C48 89.2381 57.875 99.113 70.0564 99.113Z" fill="url(#paint3_radial_149_532)"/>
<path d="M70.0564 99.113C82.2378 99.113 92.1128 89.2381 92.1128 77.0566C92.1128 64.8752 82.2378 55.0002 70.0564 55.0002C57.875 55.0002 48 64.8752 48 77.0566C48 89.2381 57.875 99.113 70.0564 99.113Z" fill="url(#paint4_radial_149_532)"/>
<path d="M70.0564 99.113C82.2378 99.113 92.1128 89.2381 92.1128 77.0566C92.1128 64.8752 82.2378 55.0002 70.0564 55.0002C57.875 55.0002 48 64.8752 48 77.0566C48 89.2381 57.875 99.113 70.0564 99.113Z" fill="url(#paint5_radial_149_532)"/>
</mask>
<g mask="url(#mask0_149_532)">
<g filter="url(#filter5_f_149_532)">
<path d="M87.3049 71.5752C87.3049 71.5752 91.8662 78.3554 92.1127 81.3757C86.5653 112.257 57.9802 110.095 66.964 101.531C78.1282 90.8898 87.3049 90.497 87.3049 71.5752Z" fill="white" fill-opacity="0.08"/>
</g>
</g>
<mask id="mask1_149_532" style="mask-type:alpha" maskUnits="userSpaceOnUse" x="48" y="55" width="45" height="45">
<path d="M70.0564 99.113C82.2378 99.113 92.1128 89.2381 92.1128 77.0566C92.1128 64.8752 82.2378 55.0002 70.0564 55.0002C57.875 55.0002 48 64.8752 48 77.0566C48 89.2381 57.875 99.113 70.0564 99.113Z" fill="url(#paint6_radial_149_532)"/>
<path d="M70.0564 99.113C82.2378 99.113 92.1128 89.2381 92.1128 77.0566C92.1128 64.8752 82.2378 55.0002 70.0564 55.0002C57.875 55.0002 48 64.8752 48 77.0566C48 89.2381 57.875 99.113 70.0564 99.113Z" fill="url(#paint7_radial_149_532)"/>
</mask>
<g mask="url(#mask1_149_532)">
</g>
</g>
<defs>
<filter id="filter0_f_149_532" x="0.758942" y="0.206085" width="141.924" height="133.591" filterUnits="userSpaceOnUse" color-interpolation-filters="sRGB">
<feFlood flood-opacity="0" result="BackgroundImageFix"/>
<feBlend mode="normal" in="SourceGraphic" in2="BackgroundImageFix" result="shape"/>
<feGaussianBlur stdDeviation="30.8051" result="effect1_foregroundBlur_149_532"/>
</filter>
<filter id="filter1_f_149_532" x="55.9378" y="68.2893" width="8.00731" height="8.00743" filterUnits="userSpaceOnUse" color-interpolation-filters="sRGB">
<feFlood flood-opacity="0" result="BackgroundImageFix"/>
<feBlend mode="normal" in="SourceGraphic" in2="BackgroundImageFix" result="shape"/>
<feGaussianBlur stdDeviation="1.64294" result="effect1_foregroundBlur_149_532"/>
</filter>
<filter id="filter2_f_149_532" x="61.8753" y="58.7952" width="7.7202" height="7.38072" filterUnits="userSpaceOnUse" color-interpolation-filters="sRGB">
<feFlood flood-opacity="0" result="BackgroundImageFix"/>
<feBlend mode="normal" in="SourceGraphic" in2="BackgroundImageFix" result="shape"/>
<feGaussianBlur stdDeviation="1.64294" result="effect1_foregroundBlur_149_532"/>
</filter>
<filter id="filter3_f_149_532" x="63.3704" y="58.2495" width="8.43699" height="7.82603" filterUnits="userSpaceOnUse" color-interpolation-filters="sRGB">
<feFlood flood-opacity="0" result="BackgroundImageFix"/>
<feBlend mode="normal" in="SourceGraphic" in2="BackgroundImageFix" result="shape"/>
<feGaussianBlur stdDeviation="1.64294" result="effect1_foregroundBlur_149_532"/>
</filter>
<filter id="filter4_f_149_532" x="58.833" y="62.7368" width="21.0039" height="13.2343" filterUnits="userSpaceOnUse" color-interpolation-filters="sRGB">
<feFlood flood-opacity="0" result="BackgroundImageFix"/>
<feBlend mode="normal" in="SourceGraphic" in2="BackgroundImageFix" result="shape"/>
<feGaussianBlur stdDeviation="1.63819" result="effect1_foregroundBlur_149_532"/>
</filter>
<filter id="filter5_f_149_532" x="60.3016" y="66.6464" width="36.7395" height="45.3424" filterUnits="userSpaceOnUse" color-interpolation-filters="sRGB">
<feFlood flood-opacity="0" result="BackgroundImageFix"/>
<feBlend mode="normal" in="SourceGraphic" in2="BackgroundImageFix" result="shape"/>
<feGaussianBlur stdDeviation="2.46441" result="effect1_foregroundBlur_149_532"/>
</filter>
<radialGradient id="paint0_radial_149_532" cx="0" cy="0" r="1" gradientUnits="userSpaceOnUse" gradientTransform="translate(63.5961 72.4887) rotate(25.085) scale(49.7156 48.2604)">
<stop offset="0.354167" stop-color="#91A4C9"/>
<stop offset="0.810035" stop-color="#454D5D"/>
</radialGradient>
<radialGradient id="paint1_radial_149_532" cx="0" cy="0" r="1" gradientUnits="userSpaceOnUse" gradientTransform="translate(59.746 90.5645) rotate(-53.858) scale(28.767 32.1496)">
<stop stop-opacity="0.61"/>
<stop offset="1" stop-opacity="0"/>
</radialGradient>
<radialGradient id="paint2_radial_149_532" cx="0" cy="0" r="1" gradientUnits="userSpaceOnUse" gradientTransform="translate(83.6949 77.0566) rotate(180) scale(37.6525 30.2945)">
<stop stop-color="white" stop-opacity="0"/>
<stop offset="0.827012" stop-color="white" stop-opacity="0"/>
<stop offset="1" stop-color="white"/>
</radialGradient>
<radialGradient id="paint3_radial_149_532" cx="0" cy="0" r="1" gradientUnits="userSpaceOnUse" gradientTransform="translate(63.5961 72.4887) rotate(25.085) scale(49.7156 48.2604)">
<stop offset="0.354167" stop-color="#91A4C9"/>
<stop offset="0.810035" stop-color="#485264"/>
</radialGradient>
<radialGradient id="paint4_radial_149_532" cx="0" cy="0" r="1" gradientUnits="userSpaceOnUse" gradientTransform="translate(59.746 90.5645) rotate(-53.858) scale(28.767 32.1496)">
<stop stop-opacity="0.61"/>
<stop offset="1" stop-opacity="0"/>
</radialGradient>
<radialGradient id="paint5_radial_149_532" cx="0" cy="0" r="1" gradientUnits="userSpaceOnUse" gradientTransform="translate(83.6949 77.0566) rotate(180) scale(37.6525 30.2945)">
<stop stop-color="white" stop-opacity="0"/>
<stop offset="0.827012" stop-color="white" stop-opacity="0"/>
<stop offset="1" stop-color="white"/>
</radialGradient>
<radialGradient id="paint6_radial_149_532" cx="0" cy="0" r="1" gradientUnits="userSpaceOnUse" gradientTransform="translate(63.5961 72.4887) rotate(25.085) scale(49.7156 48.2604)">
<stop offset="0.354167" stop-color="#91A4C9"/>
<stop offset="0.810035" stop-color="#485264"/>
</radialGradient>
<radialGradient id="paint7_radial_149_532" cx="0" cy="0" r="1" gradientUnits="userSpaceOnUse" gradientTransform="translate(59.746 90.5645) rotate(-53.858) scale(28.767 32.1496)">
<stop stop-opacity="0.61"/>
<stop offset="1" stop-opacity="0"/>
</radialGradient>
<clipPath id="clip0_149_532">
<rect width="143" height="134" fill="white" transform="translate(0 0.000244141)"/>
</clipPath>
</defs>
</svg>
