<svg width="140" height="140" viewBox="0 0 140 140" fill="none" xmlns="http://www.w3.org/2000/svg">
<path fill-rule="evenodd" clip-rule="evenodd" d="M6.25986 0.238716C3.98109 0.934291 1.91104 2.68786 0.749214 4.90643L0.1047 6.13729L0.031932 38.8701C-0.0397414 71.1529 -0.0331759 71.6234 0.512855 73.0826C1.29853 75.1822 2.67345 76.6598 4.82913 77.7211L6.65817 78.6215L30.9582 78.6956L55.2582 78.7698L56.0915 77.9366C56.7639 77.264 56.8898 76.9596 56.7429 76.3581C56.6427 75.9481 56.3191 75.3666 56.0237 75.0657C55.4962 74.5288 55.0317 74.5162 31.1664 74.3819C7.15797 74.2467 6.83708 74.238 6.07466 73.6819C5.64982 73.3723 5.02555 72.5769 4.68688 71.9147L4.07136 70.7101V39.5161C4.07136 19.8912 4.17121 7.97401 4.34027 7.38402C4.6959 6.1444 6.13512 4.69335 7.34208 4.35828C7.95212 4.1887 19.8786 4.08831 39.5081 4.08749L70.7047 4.08585L71.9095 4.70128C72.5718 5.03991 73.3673 5.66409 73.677 6.08888C74.2331 6.85119 74.2419 7.17204 74.377 31.1772C74.5113 55.0392 74.5239 55.5037 75.0609 56.0311C75.3618 56.3265 75.9434 56.65 76.3535 56.7502C76.9551 56.897 77.2595 56.7712 77.9322 56.0989L78.7655 55.2657L78.6914 30.969L78.6172 6.67231L77.7167 4.84352C76.6572 2.69169 75.178 1.31367 73.0891 0.532209C71.6479 -0.00690954 71.0239 -0.0164829 39.2822 0.00649322C21.4962 0.0193489 6.63601 0.123836 6.25986 0.238716ZM37.8441 18.1601C37.2926 18.7113 37.1725 19.1024 37.1725 20.3483V21.865H27.9958H18.8189L18.1475 22.5365C17.2858 23.3978 17.2697 24.5847 18.109 25.3732L18.7423 25.9679H34.2434H49.7446L49.0426 27.9509C47.3736 32.6649 42.7176 40.974 39.8884 44.2872L39.3104 44.9642L38.5053 44.0137C37.0089 42.2473 33.9316 37.4387 32.5036 34.6353C30.8113 31.3128 30.2363 30.6178 29.179 30.6178C28.2212 30.6178 27.0506 31.7059 27.0506 32.5962C27.0506 34.1083 30.8491 40.8496 34.2579 45.3874L36.415 48.2586L34.4015 50.1442C32.0968 52.3029 29.1319 54.6076 26.3213 56.4255C24.3566 57.6965 24.0343 58.0836 24.0502 59.1553C24.0672 60.3202 25.5105 61.4266 26.5823 61.0965C28.2177 60.5926 34.0651 56.2964 37.5423 53.0442L39.3662 51.3382L41.5519 53.426C44.0263 55.7898 48.7182 59.3563 50.9127 60.5418C52.2753 61.2778 52.44 61.3074 53.1866 60.9496C53.6295 60.7373 54.1533 60.2264 54.3508 59.8142C54.919 58.629 54.3117 57.8125 51.3654 55.8007C48.6864 53.9714 46.1103 51.9222 43.5339 49.5704L42.0985 48.2602L43.5076 46.4823C47.3591 41.622 51.2752 34.5175 53.1939 28.9083L54.1998 25.9679H56.9781C60.0202 25.9679 60.7766 25.6916 61.0838 24.4676C61.2837 23.6708 60.6707 22.2912 60.0026 22.0349C59.7592 21.9416 55.5075 21.865 50.5546 21.865H41.5495V20.7887C41.5495 17.9221 39.521 16.4831 37.8441 18.1601ZM88.5804 21.0603C85.9594 23.025 83.6582 24.9307 83.4667 25.2956C82.7595 26.6418 83.2235 27.1878 88.3558 31.0486C92.4286 34.1121 93.3943 34.7207 94.183 34.7207C95.8607 34.7207 96.8573 32.7182 95.7833 31.5054C95.5201 31.2081 94.5353 30.3872 93.5948 29.6813C92.6546 28.9753 91.885 28.3251 91.885 28.2365C91.885 28.1476 93.8856 28.1449 96.3304 28.2299C99.6613 28.3459 101.204 28.5201 102.485 28.9255C106.568 30.2168 109.88 33.5683 111.186 37.7295C111.574 38.9639 111.681 40.6824 111.786 47.3029C111.856 51.7408 112.031 55.5931 112.174 55.8637C112.8 57.0423 115.045 56.9777 115.695 55.7627C115.846 55.4804 115.959 51.903 115.959 47.3647C115.959 40.3909 115.895 39.2092 115.419 37.349C113.895 31.3916 109.341 26.6172 103.375 24.7222C102.282 24.3751 100.496 24.1993 96.8546 24.0803L91.8388 23.9164L93.6397 22.5956C96.4182 20.5578 96.8978 19.4673 95.5904 18.1601C94.3591 16.9287 93.765 17.1743 88.5804 21.0603ZM68.0123 61.5475C65.4361 62.1613 62.8551 64.4105 61.9072 66.8676C61.4008 68.1808 61.3828 69.352 61.3828 100.914V133.6L62.3318 135.351C62.9289 136.452 63.7639 137.483 64.5832 138.131C67.1582 140.166 64.7487 140.045 101.201 139.964L133.877 139.891L135.245 139.163C136.884 138.289 138.373 136.781 139.251 135.104L139.895 133.874L139.968 101.141C140.04 68.858 140.033 68.3876 139.487 66.9283C138.738 64.9256 137.407 63.4512 135.334 62.3276L133.603 61.3894L123.469 61.306C113.484 61.2239 113.324 61.2313 112.595 61.8046C111.643 62.5535 111.558 64.181 112.43 64.9712C112.968 65.4581 113.665 65.5013 123.08 65.6291C132.783 65.7609 133.183 65.7872 133.926 66.3416C134.35 66.6581 134.944 67.335 135.245 67.846C135.782 68.7576 135.793 69.3419 135.873 99.8197C135.917 116.895 135.878 131.398 135.784 132.049C135.566 133.575 134.095 135.262 132.639 135.653C131.947 135.84 121.026 135.909 100.183 135.861C69.3287 135.79 68.7523 135.778 67.8402 135.241C67.3292 134.94 66.6521 134.347 66.3356 133.922L65.7598 133.15L65.6881 101.005L65.6164 68.861L66.1991 67.8244C66.5195 67.2541 67.2455 66.527 67.8126 66.2084C68.8341 65.6345 69.0119 65.6291 87.0845 65.6291C100.428 65.6291 105.486 65.5437 105.923 65.311C107.268 64.5949 107.598 63.1673 106.682 62.0352L106.159 61.3894L87.6008 61.3456C77.3936 61.3216 68.5791 61.4124 68.0123 61.5475ZM99.3571 79.2916C98.8776 79.5841 98.3537 80.0693 98.1928 80.3699C97.8673 80.9779 83.4585 118.703 83.1368 119.79C82.5532 121.76 84.8214 123.333 86.3878 122.044C86.7311 121.761 87.6298 119.828 88.5801 117.325L90.1906 113.086L100.689 113.014L111.187 112.943L112.812 117.246C113.706 119.612 114.657 121.768 114.924 122.035C115.983 123.093 118.421 122.108 118.421 120.623C118.421 120.119 103.959 81.4908 103.331 80.3185C102.99 79.6801 101.481 78.7602 100.776 78.7602C100.475 78.7602 99.8364 78.9995 99.3571 79.2916ZM25.2725 83.444C24.0565 84.1237 24.0414 84.2351 24.0414 92.5798C24.0414 99.6198 24.1046 100.799 24.5809 102.662C26.1049 108.619 30.6589 113.394 36.6253 115.289C37.7177 115.636 39.5043 115.812 43.1454 115.931L48.1612 116.094L46.3603 117.415C43.5818 119.453 43.1022 120.544 44.4096 121.851C45.6409 123.082 46.2351 122.837 51.4196 118.951C54.0406 116.986 56.3418 115.08 56.5333 114.715C57.2405 113.369 56.7765 112.823 51.6442 108.962C47.5714 105.899 46.6057 105.29 45.817 105.29C44.1393 105.29 43.1427 107.293 44.2167 108.506C44.4801 108.803 45.465 109.624 46.4052 110.33C47.3457 111.036 48.115 111.686 48.115 111.774C48.115 111.863 46.1147 111.866 43.6696 111.781C40.3387 111.665 38.7958 111.491 37.515 111.085C33.4323 109.794 30.1222 106.445 28.8129 102.281C28.4226 101.041 28.3175 99.3304 28.2133 92.5191C28.1028 85.3081 28.0297 84.2096 27.6372 83.856C26.9943 83.2769 25.9096 83.0879 25.2725 83.444ZM105.283 97.3093C107.572 103.375 109.391 108.393 109.324 108.459C109.257 108.526 105.324 108.548 100.582 108.508L91.9619 108.436L96.3638 96.8823C99.2017 89.4345 100.829 85.4979 100.944 85.8046C101.041 86.0663 102.994 91.2433 105.283 97.3093Z" fill="white"/>
</svg>
