<svg width="20" height="20" viewBox="0 0 20 20" fill="none" xmlns="http://www.w3.org/2000/svg">
<path fill-rule="evenodd" clip-rule="evenodd" d="M0.910747 0.0591493C0.309383 0.274583 -0.0249515 0.75883 0.00602495 1.36957C0.0332123 1.90614 -0.184873 1.66285 4.19784 6.04584L8.16372 10.012L4.1644 14.0176C0.297625 17.8906 0.162274 18.0311 0.078759 18.2578C-0.0954199 18.7307 0.0253217 19.2813 0.381414 19.6377C0.641842 19.8984 0.889029 19.996 1.2891 19.996C1.89234 19.996 1.5568 20.2915 6.02541 15.8236L10 11.8496L13.9746 15.8236C18.4432 20.2915 18.1077 19.996 18.7109 19.996C19.111 19.996 19.3582 19.8984 19.6186 19.6377C19.9747 19.2813 20.0954 18.7307 19.9212 18.2578C19.8377 18.0311 19.7024 17.8906 15.8356 14.0176L11.8363 10.012L15.8022 6.04584C20.1602 1.6875 19.9646 1.90474 19.9935 1.39161C20.0248 0.8389 19.7715 0.397051 19.2791 0.145432C19.0355 0.0208925 18.9832 0.00897392 18.6952 0.0121392C18.4594 0.0146792 18.3291 0.0375786 18.1836 0.101978C18.0199 0.174389 17.3416 0.834913 13.9941 4.18185L10 8.17533L6.00588 4.18185C1.62992 -0.193408 1.89047 0.0412128 1.36723 0.00444094C1.18211 -0.00857183 1.05844 0.0062385 0.910747 0.0591493Z" fill="#270C41"/>
</svg>
