<svg width="162" height="173" viewBox="0 0 162 173" fill="none" xmlns="http://www.w3.org/2000/svg">
<g filter="url(#filter0_d_1921_2692)">
<path fill-rule="evenodd" clip-rule="evenodd" d="M26.6362 12.8374L25.7298 13.6751V46.2853V78.8954L19.1908 79.0013L12.6521 79.1075L11.8259 80.0658L11 81.0241V96.5701V112.116L12.0013 113.114L13.0026 114.113H19.3662H25.7298V132.229V150.346L26.6362 151.183C27.6214 152.093 28.7747 152.247 29.9487 151.624C31.5607 150.767 31.5309 151.134 31.5422 132.128L31.5532 114.113H37.9168H44.2804L45.2817 113.114L46.283 112.116V96.5701V81.0241L45.4571 80.0658L44.6308 79.1075L38.0922 79.0013L31.5532 78.8954V46.3481V13.8008L30.6502 12.9002C29.4708 11.7244 27.868 11.6995 26.6362 12.8374ZM73.4495 12.8241L72.4883 13.6481L72.3962 39.1206L72.3043 64.5932H65.862C59.5706 64.5932 59.4021 64.6116 58.6745 65.3834C57.9318 66.1716 57.9298 66.2194 57.9298 82.0582V97.9423L58.7225 98.6851C59.4781 99.3927 59.8159 99.4276 65.9099 99.4276H72.3043L72.3962 124.9L72.4883 150.373L73.4495 151.197C74.6779 152.25 76.1221 152.25 77.3505 151.197L78.3117 150.373L78.4039 124.9L78.4957 99.4276H84.938C91.2294 99.4276 91.3979 99.4091 92.1255 98.6373C92.8682 97.8491 92.8702 97.8013 92.8702 81.9626V66.0784L92.0775 65.3356C91.3219 64.628 90.9841 64.5932 84.8901 64.5932H78.4957L78.4039 39.1206L78.3117 13.6481L77.3505 12.8241C76.8144 12.3644 75.9522 12 75.4 12C74.8478 12 73.9856 12.3644 73.4495 12.8241ZM120.15 12.9002L119.247 13.8008V28.9514V44.1023H112.769H106.291L105.404 45.1532L104.517 46.2037V61.6975V77.1909L105.343 78.1492L106.169 79.1075L112.708 79.2137L119.247 79.3196L119.258 114.731C119.266 142.029 119.364 150.267 119.686 150.684C120.842 152.186 122.838 152.408 124.164 151.183L125.07 150.346V114.833V79.3196L131.609 79.2137L138.148 79.1075L138.974 78.1492L139.8 77.1909V61.6975V46.2037L138.913 45.1532L138.026 44.1023H131.548H125.07V28.8886V13.6751L124.164 12.8374C122.932 11.6995 121.329 11.7244 120.15 12.9002ZM133.634 61.5195V73.131H122.159H110.683V61.5195V49.9081H122.159H133.634V61.5195ZM87.0468 82.0104V93.6218H75.4H63.7532V82.0104V70.3989H75.4H87.0468V82.0104ZM40.117 96.6955V108.307H28.6415H17.166V96.6955V85.084H28.6415H40.117V96.6955Z" fill="#F5F5F5"/>
</g>
<defs>
<filter id="filter0_d_1921_2692" x="0.153748" y="0.0691223" width="161.339" height="172.539" filterUnits="userSpaceOnUse" color-interpolation-filters="sRGB">
<feFlood flood-opacity="0" result="BackgroundImageFix"/>
<feColorMatrix in="SourceAlpha" type="matrix" values="0 0 0 0 0 0 0 0 0 0 0 0 0 0 0 0 0 0 127 0" result="hardAlpha"/>
<feOffset dx="5.42313" dy="4.3385"/>
<feGaussianBlur stdDeviation="8.13469"/>
<feComposite in2="hardAlpha" operator="out"/>
<feColorMatrix type="matrix" values="0 0 0 0 0.615431 0 0 0 0 0.334688 0 0 0 0 0.7875 0 0 0 0.2 0"/>
<feBlend mode="normal" in2="BackgroundImageFix" result="effect1_dropShadow_1921_2692"/>
<feBlend mode="normal" in="SourceGraphic" in2="effect1_dropShadow_1921_2692" result="shape"/>
</filter>
</defs>
</svg>
