<svg width="49" height="65" viewBox="0 0 49 65" fill="none" xmlns="http://www.w3.org/2000/svg">
<path fill-rule="evenodd" clip-rule="evenodd" d="M15.0894 0.11048C14.4745 0.290678 13.5032 1.29703 13.326 1.93745C13.2466 2.22355 13.1816 2.8356 13.1812 3.29744L13.1804 4.13724L7.82756 4.17546C2.84776 4.21099 2.43811 4.23193 1.94916 4.47534C1.27881 4.80886 0.644145 5.44549 0.311665 6.11792C0.0566146 6.63353 0.0500163 7.25801 0.0140615 34.4042C-0.0197387 60.0212 -0.00532909 62.2092 0.201512 62.7582C0.480397 63.4987 1.20771 64.3197 1.92694 64.7058L2.47474 65H24.492H46.5093L47.0479 64.708C47.7638 64.3197 48.3852 63.6504 48.7205 62.9062C48.9932 62.3014 48.9946 62.1626 48.9975 34.6647C49.0008 3.89625 49.0762 6.29542 48.0747 5.26043C47.0487 4.19991 47.1665 4.21842 41.1731 4.17546L35.8369 4.13737L35.7776 3.00391C35.7083 1.6785 35.3684 1.02052 34.4321 0.398877L33.871 0.0261897L24.704 0.00282069C19.0969 -0.0116329 15.3631 0.0302422 15.0894 0.11048ZM32.9757 5.5645V8.33365H24.492H16.0083V5.5645V2.79534H24.492H32.9757V5.5645ZM13.1804 7.91301C13.1804 9.17696 13.6563 10.1166 14.5898 10.6955L15.2465 11.1028H24.492H33.7375L34.3942 10.6955C35.3277 10.1166 35.8036 9.17696 35.8036 7.91301V6.98285H40.8265C44.5537 6.98285 45.8912 7.02472 46.011 7.14494C46.1356 7.26989 46.1726 13.5587 46.1726 34.6291C46.1726 61.5034 46.1683 61.9535 45.9122 62.091C45.7358 62.1857 38.7864 62.2308 24.3827 62.2308C4.76265 62.2308 3.09931 62.2136 2.92882 62.0074C2.65236 61.6732 2.65236 7.54046 2.92882 7.20627C3.09473 7.00567 3.62933 6.98285 8.14698 6.98285H13.1804V7.91301ZM14.5943 14.5675C14.4462 14.6484 13.4144 15.62 12.3014 16.7268L10.2779 18.7389L9.67553 18.1182C8.55838 16.9669 7.80036 16.8102 7.03979 17.5732C6.21 18.4055 6.40216 18.9168 8.22522 20.728C9.53468 22.0288 9.99347 22.2838 10.6839 22.0943C11.2268 21.9453 16.3602 16.8036 16.5539 16.2145C16.9158 15.1147 15.607 14.0146 14.5943 14.5675ZM20.3563 17.1078C19.6236 17.5584 19.537 18.6875 20.1854 19.3379C20.4559 19.6092 20.6011 19.6134 30.9547 19.6491L41.4497 19.6853L41.8922 19.2887C42.27 18.9502 42.3347 18.8019 42.3347 18.2763C42.3347 17.7832 42.2603 17.5856 41.9614 17.2859L41.588 16.9113L31.1885 16.8766C21.0486 16.8428 20.778 16.8486 20.3563 17.1078ZM14.4597 26.4133C14.2375 26.5579 13.2103 27.5316 12.1769 28.5768L10.2982 30.4774L9.4796 29.689C8.54868 28.7923 8.03077 28.601 7.40796 28.9241C6.84251 29.2174 6.58194 29.6445 6.58194 30.2783C6.58194 30.7896 6.66799 30.9055 8.11331 32.3419C9.63917 33.8584 9.64698 33.8639 10.294 33.8639H10.9435L13.6767 31.1341C16.6164 28.1978 16.8378 27.8814 16.5071 27.0877C16.2601 26.4948 15.9927 26.2884 15.3739 26.2127C15.0146 26.1686 14.7442 26.2279 14.4597 26.4133ZM20.3478 28.8651C20.0642 29.0395 19.8781 29.2797 19.8266 29.5382C19.6645 30.351 19.8214 30.8398 20.3478 31.1617C20.7784 31.4252 21.0317 31.4315 31.122 31.4319L41.4551 31.4324L41.8949 31.0383C42.2698 30.7023 42.3347 30.5532 42.3347 30.0283C42.3347 29.5352 42.2603 29.3376 41.9614 29.0379L41.588 28.6633L31.1885 28.6286C20.9814 28.5947 20.7806 28.599 20.3478 28.8651ZM14.4597 38.1728C14.2375 38.3135 13.2115 39.2824 12.1796 40.3262L10.3036 42.224L9.44782 41.421C8.67553 40.6963 8.53521 40.6179 8.00936 40.6179C7.55824 40.6179 7.34588 40.699 7.06888 40.9768C6.20892 41.8393 6.39853 42.3786 8.1894 44.1638C9.63917 45.6092 9.649 45.6159 10.2986 45.6159H10.9513L13.7492 42.8095C16.52 40.0299 16.5469 39.9974 16.5469 39.4235C16.5469 38.7041 16.3813 38.3824 15.8763 38.1203C15.3529 37.8488 14.9482 37.8638 14.4597 38.1728ZM20.3478 40.6171C20.0642 40.7915 19.8781 41.0317 19.8266 41.2902C19.6645 42.103 19.8214 42.5919 20.3478 42.9138C20.7784 43.1772 21.0317 43.1835 31.122 43.1839L41.4551 43.1845L41.8949 42.7903C42.2698 42.4544 42.3347 42.3052 42.3347 41.7803C42.3347 41.2873 42.2603 41.0896 41.9614 40.7899L41.588 40.4153L31.1885 40.3806C20.9814 40.3467 20.7806 40.351 20.3478 40.6171ZM14.4597 49.9173C14.2375 50.062 13.2115 51.0344 12.1796 52.0782L10.3036 53.9761L9.44782 53.173C8.67553 52.4483 8.53521 52.37 8.00936 52.37C7.55824 52.37 7.34588 52.451 7.06888 52.7289C6.20892 53.5914 6.39853 54.1306 8.1894 55.9158C9.63675 57.3588 9.65008 57.3679 10.2947 57.3679H10.9435L13.6767 54.6381C16.6164 51.7018 16.8378 51.3855 16.5071 50.5918C16.2601 49.9989 15.9927 49.7925 15.3739 49.7167C15.0146 49.6727 14.7442 49.732 14.4597 49.9173ZM20.3631 52.3612C19.4775 52.9028 19.5293 54.2551 20.4542 54.7349C20.8031 54.9158 22.1339 54.9369 31.2201 54.9052L41.588 54.8689L41.9614 54.4944C42.2603 54.1946 42.3347 53.997 42.3347 53.504C42.3347 52.979 42.2698 52.8299 41.8949 52.494L41.4551 52.0998L31.122 52.1003C21.1563 52.1007 20.7737 52.1101 20.3631 52.3612Z" fill="#310A49"/>
</svg>
