<svg width="106" height="140" viewBox="0 0 106 140" fill="none" xmlns="http://www.w3.org/2000/svg">
<path fill-rule="evenodd" clip-rule="evenodd" d="M32.6423 0.237957C31.3121 0.626075 29.2109 2.7936 28.8276 4.17296C28.656 4.78918 28.5153 6.10744 28.5144 7.10218L28.5127 8.91097L16.9331 8.99331C6.16045 9.06982 5.27429 9.11492 4.21654 9.6392C2.7664 10.3575 1.39346 11.7288 0.674213 13.1771C0.122472 14.2876 0.108198 15.6326 0.0304187 74.1014C-0.0427001 129.276 -0.0115282 133.989 0.435924 135.172C1.03923 136.766 2.61259 138.535 4.16848 139.366L5.35353 140H52.9827H100.612L101.777 139.371C103.326 138.535 104.67 137.093 105.395 135.49C105.985 134.188 105.988 133.889 105.995 74.6623C106.002 8.39193 106.165 13.5594 103.998 11.3302C101.779 9.04597 102.034 9.08582 89.0684 8.99331L77.5247 8.91126L77.3965 6.46996C77.2465 3.61522 76.5112 2.19804 74.4857 0.859121L73.2719 0.0564086L53.4412 0.00607534C41.3117 -0.0250556 33.2345 0.065137 32.6423 0.237957ZM71.3352 11.9851V17.9494H52.9827H34.6302V11.9851V6.02074H52.9827H71.3352V11.9851ZM28.5127 17.0434C28.5127 19.7658 29.5422 21.7896 31.5615 23.0365L32.9822 23.9137H52.9827H72.9832L74.4039 23.0365C76.4232 21.7896 77.4527 19.7658 77.4527 17.0434V15.04H88.3186C96.3815 15.04 99.2747 15.1302 99.534 15.3891C99.8035 15.6582 99.8836 29.2034 99.8836 74.5858C99.8836 132.469 99.8743 133.438 99.3202 133.735C98.9386 133.938 83.9052 134.036 52.7462 134.036C10.3029 134.036 6.70462 133.998 6.33582 133.554C5.73776 132.835 5.73776 16.241 6.33582 15.5212C6.69472 15.0891 7.85121 15.04 17.6241 15.04H28.5127V17.0434ZM31.5714 31.3761C31.251 31.5504 29.019 33.6432 26.6113 36.0269L22.2338 40.3607L20.9307 39.0239C18.514 36.5442 16.8742 36.2067 15.2289 37.8499C13.4339 39.6427 13.8496 40.7439 17.7933 44.6449C20.626 47.4467 21.6185 47.996 23.1121 47.5878C24.2866 47.2669 35.3914 36.1924 35.8106 34.9236C36.5933 32.5547 33.7621 30.1853 31.5714 31.3761ZM44.036 36.8476C42.451 37.8182 42.2637 40.2499 43.6663 41.6508C44.2516 42.2353 44.5656 42.2443 66.9632 42.3211L89.6668 42.3991L90.624 41.5449C91.4411 40.8158 91.5813 40.4963 91.5813 39.3643C91.5813 38.3023 91.4202 37.8767 90.7737 37.2311L89.9659 36.4243L67.4689 36.3495C45.5336 36.2768 44.9484 36.2893 44.036 36.8476ZM31.2801 56.8901C30.7994 57.2017 28.5773 59.2988 26.3418 61.5501L22.2778 65.6437L20.5069 63.9455C18.4931 62.0142 17.3727 61.6022 16.0254 62.2981C14.8022 62.9298 14.2385 63.8497 14.2385 65.2148C14.2385 66.3161 14.4246 66.5657 17.5513 69.6596C20.8521 72.9257 20.869 72.9376 22.2687 72.9376H23.6737L29.5864 67.058C35.9457 60.7337 36.4246 60.0523 35.7092 58.3428C35.1749 57.0658 34.5964 56.6213 33.2578 56.458C32.4806 56.3632 31.8956 56.4909 31.2801 56.8901ZM44.0176 62.171C43.4041 62.5466 43.0015 63.0639 42.8903 63.6208C42.5395 65.3714 42.8789 66.4243 44.0176 67.1176C44.9492 67.685 45.4972 67.6986 67.3251 67.6995L89.6784 67.7007L90.6298 66.8517C91.4408 66.1281 91.5813 65.8069 91.5813 64.6763C91.5813 63.6144 91.4202 63.1887 90.7737 62.5431L89.9659 61.7363L67.4689 61.6616C45.3882 61.5885 44.9539 61.5978 44.0176 62.171ZM31.2801 82.2184C30.7994 82.5213 28.58 84.6082 26.3476 86.8563L22.2894 90.9441L20.4381 89.2144C18.7675 87.6535 18.4639 87.4848 17.3264 87.4848C16.3505 87.4848 15.8911 87.6594 15.2919 88.2578C13.4315 90.1155 13.8417 91.2769 17.7158 95.122C20.8521 98.2351 20.8734 98.2497 22.2786 98.2497H23.6906L29.7432 92.205C35.7371 86.2183 35.7954 86.1482 35.7954 84.9123C35.7954 83.3627 35.4371 82.6697 34.3447 82.1053C33.2124 81.5205 32.337 81.5527 31.2801 82.2184ZM44.0176 87.483C43.4041 87.8586 43.0015 88.3759 42.8903 88.9328C42.5395 90.6834 42.8789 91.7363 44.0176 92.4297C44.9492 92.997 45.4972 93.0107 67.3251 93.0115L89.6784 93.0127L90.6298 92.1637C91.4408 91.4402 91.5813 91.119 91.5813 89.9884C91.5813 88.9264 91.4202 88.5008 90.7737 87.8552L89.9659 87.0484L67.4689 86.9736C45.3882 86.9006 44.9539 86.9099 44.0176 87.483ZM31.2801 107.514C30.7994 107.826 28.58 109.92 26.3476 112.168L22.2894 116.256L20.4381 114.526C18.7675 112.966 18.4639 112.797 17.3264 112.797C16.3505 112.797 15.8911 112.971 15.2919 113.57C13.4315 115.428 13.8417 116.589 17.7158 120.434C20.8468 123.542 20.8757 123.562 22.2702 123.562H23.6737L29.5864 117.682C35.9457 111.358 36.4246 110.676 35.7092 108.967C35.1749 107.69 34.5964 107.245 33.2578 107.082C32.4806 106.987 31.8956 107.115 31.2801 107.514ZM44.0508 112.778C42.1349 113.945 42.2471 116.857 44.2478 117.891C45.0026 118.28 47.8816 118.326 67.5374 118.257L89.9659 118.179L90.7737 117.372C91.4202 116.727 91.5813 116.301 91.5813 115.239C91.5813 114.109 91.4408 113.787 90.6298 113.064L89.6784 112.215L67.3251 112.216C45.7667 112.217 44.939 112.237 44.0508 112.778Z" fill="white"/>
</svg>
