<svg width="38" height="38" viewBox="0 0 38 38" fill="none" xmlns="http://www.w3.org/2000/svg">
<path d="M36.4584 18.2292C36.4584 8.15902 28.2993 0 18.2292 0C8.15902 0 0 8.15902 0 18.2292C0 27.3275 6.66614 34.8692 15.3809 36.2379V23.4988H10.7501V18.2292H15.3809V14.2129C15.3809 9.64455 18.1005 7.12114 22.266 7.12114C24.2609 7.12114 26.3471 7.4769 26.3471 7.4769V11.9607H24.0478C21.7838 11.9607 21.0775 13.3661 21.0775 14.8075V18.2292H26.1332L25.3246 23.4988H21.0775V36.2379C29.7922 34.8692 36.4584 27.3275 36.4584 18.2292Z" fill="url(#paint0_linear_3056_3790)"/>
<defs>
<linearGradient id="paint0_linear_3056_3790" x1="31.9581" y1="-19.092" x2="57.8941" y2="7.71122" gradientUnits="userSpaceOnUse">
<stop stop-color="#295A92"/>
<stop offset="0.485813" stop-color="#9D55C9"/>
<stop offset="1" stop-color="#0F73B7"/>
</linearGradient>
</defs>
</svg>
