<svg width="15" height="15" viewBox="0 0 15 15" fill="none" xmlns="http://www.w3.org/2000/svg">
<g clip-path="url(#clip0_2102_3)">
<mask id="mask0_2102_3" style="mask-type:luminance" maskUnits="userSpaceOnUse" x="0" y="0" width="15" height="15">
<path d="M0 0H15V15H0V0Z" fill="white"/>
</mask>
<g mask="url(#mask0_2102_3)">
<path fill-rule="evenodd" clip-rule="evenodd" d="M-2.7832 0H19.7168V15H-2.7832V0Z" fill="#0C590B"/>
<path fill-rule="evenodd" clip-rule="evenodd" d="M-2.7832 0H2.85645V15H-2.7832V0Z" fill="white"/>
<path fill-rule="evenodd" clip-rule="evenodd" d="M11.8271 6.60352L10.9131 6.41016L10.4326 7.20996L10.333 6.28418L9.4248 6.07324L10.2744 5.69238L10.1953 4.76367L10.8223 5.45508L11.6807 5.0918L11.2148 5.90039L11.8301 6.60352H11.8271Z" fill="white"/>
<path fill-rule="evenodd" clip-rule="evenodd" d="M12.1699 8.96484C11.9749 9.39029 11.6978 9.773 11.3544 10.091C11.011 10.4089 10.6081 10.6559 10.169 10.8176C9.72982 10.9793 9.26302 11.0526 8.79542 11.0333C8.32782 11.014 7.86866 10.9025 7.44432 10.7051C6.58341 10.3065 5.9161 9.5822 5.58919 8.69159C5.26228 7.80097 5.30256 6.81697 5.70116 5.95605C5.89911 5.5135 6.18749 5.11727 6.54774 4.79284C6.908 4.4684 7.33216 4.22295 7.79296 4.07227C7.67232 4.17271 7.55693 4.2793 7.44725 4.3916C6.87567 5.02461 6.57224 5.85485 6.60095 6.70725C6.62966 7.55965 6.98826 8.3676 7.60114 8.96071C8.21401 9.55383 9.03327 9.88578 9.88615 9.88655C10.739 9.88732 11.5589 9.55686 12.1728 8.96484H12.1699Z" fill="white"/>
</g>
</g>
<defs>
<clipPath id="clip0_2102_3">
<rect width="15" height="15" rx="7.5" fill="white"/>
</clipPath>
</defs>
</svg>
