<svg width="36" height="36" viewBox="0 0 36 36" fill="none" xmlns="http://www.w3.org/2000/svg">
<g clip-path="url(#clip0_2093_32)">
<path d="M0.5 0.5H35.5V35.5H0.5V0.5Z" fill="#20603D"/>
<path d="M0.5 0.5H35.5V26.75H0.5V0.5Z" fill="#FAD201"/>
<path d="M0.5 0.5H35.5V18H0.5V0.5Z" fill="#00A1DE"/>
<path d="M31.7374 9.64651L27.8292 9.87498L31.543 11.1097L27.7125 10.3173L30.984 12.4659L27.484 10.7062L30.0798 13.6374L27.1583 11.0368L28.918 14.5367L26.7646 11.2652L27.5521 15.0909L26.3222 11.3819L26.0938 15.2902L26.0452 9.5979L31.7374 9.64651Z" fill="#E5BE01"/>
<path d="M31.7374 9.64646L27.8292 9.41799L31.543 8.18329L27.7125 8.97564L30.984 6.82706L27.484 8.58675L30.0798 5.65555L27.1583 8.2562L28.918 4.75626L26.7646 8.02773L27.5521 4.2021L26.3222 7.91107L26.0938 4.0028L26.0452 9.69507L31.7374 9.64646Z" fill="#E5BE01"/>
<path d="M20.4501 9.64651L24.3583 9.87498L20.6445 11.1097L24.475 10.3173L21.2035 12.4659L24.7035 10.7062L22.1077 13.6374L25.0292 11.0368L23.2695 14.5367L25.4229 11.2652L24.6354 15.0909L25.8653 11.3819L26.0937 15.2902L26.1423 9.5979L20.4501 9.64651Z" fill="#E5BE01"/>
<path d="M20.4501 9.64646L24.3583 9.41799L20.6445 8.18329L24.475 8.97564L21.2035 6.82706L24.7035 8.58675L22.1077 5.65555L25.0292 8.2562L23.2695 4.75626L25.4229 8.02773L24.6354 4.2021L25.8653 7.91107L26.0937 4.0028L26.1423 9.69507L20.4501 9.64646Z" fill="#E5BE01"/>
<path d="M26.0938 11.3138C27.0147 11.3138 27.7612 10.5673 27.7612 9.64646C27.7612 8.72562 27.0147 7.97913 26.0938 7.97913C25.173 7.97913 24.4265 8.72562 24.4265 9.64646C24.4265 10.5673 25.173 11.3138 26.0938 11.3138Z" fill="#E5BE01" stroke="#00A1DE" stroke-width="0.165275"/>
</g>
<defs>
<clipPath id="clip0_2093_32">
<rect x="0.5" y="0.5" width="35" height="35" rx="17.5" fill="white"/>
</clipPath>
</defs>
</svg>
