<svg width="173" height="141" viewBox="0 0 173 141" fill="none" xmlns="http://www.w3.org/2000/svg">
<g filter="url(#filter0_d_1921_2713)">
<path fill-rule="evenodd" clip-rule="evenodd" d="M100.832 12.5673C100.253 12.8721 99.5081 13.5604 99.1756 14.0967L98.5713 15.0717V65.9938V116.916L99.1765 117.892C99.8739 119.018 101.605 120 102.892 120C104.162 120 105.99 118.981 106.647 117.906C107.202 116.999 107.211 116.105 107.211 65.9938C107.211 15.8826 107.202 14.9881 106.647 14.0818C105.974 12.9801 104.145 11.9827 102.832 12.0002C102.31 12.0074 101.411 12.2625 100.832 12.5673ZM34.9772 25.775C34.4607 26.089 33.7809 26.7669 33.466 27.282C32.9023 28.2035 32.8933 28.8054 32.8933 65.9938C32.8933 103.182 32.9023 103.784 33.466 104.706C34.2663 106.015 35.6522 106.784 37.2124 106.784C38.7725 106.784 40.1584 106.015 40.9587 104.706C41.5225 103.784 41.5314 103.182 41.5314 65.9938C41.5314 28.8054 41.5225 28.2035 40.9587 27.282C40.1584 25.9726 38.7725 25.2039 37.2124 25.2039C36.4259 25.2039 35.5467 25.4285 34.9772 25.775ZM78.9387 34.3996C78.36 34.7044 77.6147 35.3927 77.2823 35.929C76.6791 36.9023 76.6779 36.9534 76.6779 65.9938C76.6779 95.0474 76.6788 95.0847 77.2832 96.06C77.9806 97.1855 79.7122 98.1677 80.999 98.1677C82.2691 98.1677 84.0969 97.1485 84.754 96.0735C85.3039 95.1741 85.318 94.4324 85.318 65.9938C85.318 37.5552 85.3039 36.8135 84.754 35.9141C84.0805 34.8124 82.2521 33.815 80.9385 33.8325C80.4171 33.8397 79.5174 34.0948 78.9387 34.3996ZM122.725 34.3996C122.147 34.7044 121.401 35.3927 121.069 35.929C120.466 36.9023 120.465 36.9534 120.465 65.9938C120.465 95.0474 120.465 95.0847 121.07 96.06C121.767 97.1855 123.499 98.1677 124.786 98.1677C126.056 98.1677 127.884 97.1485 128.541 96.0735C129.091 95.1741 129.105 94.4324 129.105 65.9938C129.105 37.5552 129.091 36.8135 128.541 35.9141C127.867 34.8124 126.039 33.815 124.725 33.8325C124.204 33.8397 123.304 34.0948 122.725 34.3996ZM144.807 38.702C144.173 39.0171 143.363 39.7037 143.006 40.2277L142.358 41.1808V65.9938V90.8068L143.006 91.7625C143.704 92.7918 145.574 93.8587 146.679 93.8587C147.813 93.8587 149.79 92.728 150.413 91.7217C150.992 90.7878 151 90.4261 151 65.9938C151 41.5614 150.992 41.1998 150.413 40.2659C149.785 39.2527 147.811 38.1286 146.66 38.1292C146.274 38.1292 145.44 38.3871 144.807 38.702ZM58.0067 42.7335C57.4812 42.8513 56.7236 43.2529 56.3229 43.6263C54.7244 45.1152 54.7846 44.2356 54.7846 66.0805V86.3047L55.4328 87.2544C56.4906 88.8042 57.419 89.3288 59.1057 89.3288C60.7923 89.3288 61.7208 88.8042 62.7786 87.2544L63.4267 86.3047V65.9938V45.6829L62.7786 44.7332C61.5704 42.9627 59.9722 42.2931 58.0067 42.7335ZM13.0839 47.6073C12.5674 47.9212 11.8875 48.5992 11.5727 49.1143C11.0196 50.0189 11 50.5905 11 65.9938C11 81.397 11.0196 81.9687 11.5727 82.8733C13.2691 85.648 17.3689 85.648 19.0654 82.8733C19.6185 81.9687 19.6381 81.397 19.6381 65.9938C19.6381 50.5905 19.6185 50.0189 19.0654 49.1143C17.8437 47.116 15.0497 46.4119 13.0839 47.6073Z" fill="#F5F5F5"/>
</g>
<defs>
<filter id="filter0_d_1921_2713" x="0.153748" y="0.0691223" width="172.539" height="140.539" filterUnits="userSpaceOnUse" color-interpolation-filters="sRGB">
<feFlood flood-opacity="0" result="BackgroundImageFix"/>
<feColorMatrix in="SourceAlpha" type="matrix" values="0 0 0 0 0 0 0 0 0 0 0 0 0 0 0 0 0 0 127 0" result="hardAlpha"/>
<feOffset dx="5.42313" dy="4.3385"/>
<feGaussianBlur stdDeviation="8.13469"/>
<feComposite in2="hardAlpha" operator="out"/>
<feColorMatrix type="matrix" values="0 0 0 0 0.615431 0 0 0 0 0.334688 0 0 0 0 0.7875 0 0 0 0.2 0"/>
<feBlend mode="normal" in2="BackgroundImageFix" result="effect1_dropShadow_1921_2713"/>
<feBlend mode="normal" in="SourceGraphic" in2="effect1_dropShadow_1921_2713" result="shape"/>
</filter>
</defs>
</svg>
