<svg width="15" height="22" viewBox="0 0 15 22" fill="none" xmlns="http://www.w3.org/2000/svg">
<path fill-rule="evenodd" clip-rule="evenodd" d="M0.614286 0.110773C-0.0849441 0.459207 -0.213936 1.41646 0.369321 1.92852C0.584638 2.11763 0.764806 2.18952 1.1022 2.22101L1.37827 2.24679V3.11923C1.37827 3.65041 1.40367 4.18546 1.4432 4.48697C1.65447 6.0986 2.33106 7.583 3.43965 8.86712C3.78731 9.26982 4.14417 9.60162 4.7707 10.1047C5.08849 10.3599 5.22397 10.6275 5.22397 11C5.22397 11.3725 5.08849 11.6401 4.7707 11.8953C4.14417 12.3984 3.78731 12.7302 3.43965 13.1329C2.33106 14.417 1.65447 15.9014 1.4432 17.513C1.40367 17.8145 1.37827 18.3496 1.37827 18.8808V19.7532L1.1022 19.779C0.764806 19.8105 0.584638 19.8824 0.369321 20.0715C-0.233229 20.6005 -0.074116 21.5809 0.669286 21.9198C0.833083 21.9944 1.13704 21.9982 7.1384 21.9991L13.4356 22L13.6579 21.8892C14.3571 21.5408 14.4861 20.5835 13.9028 20.0715C13.6883 19.8831 13.5074 19.8105 13.175 19.7795L12.9039 19.7542L12.8808 18.6534C12.8563 17.4902 12.8165 17.1647 12.6063 16.4141C12.1205 14.6793 11.1392 13.2087 9.69517 12.0514C9.17091 11.6312 9.04819 11.4318 9.04819 11C9.04819 10.6273 9.18367 10.3597 9.50147 10.105C10.3764 9.40362 10.8288 8.93741 11.3778 8.1715C12.0593 7.22077 12.5614 6.02555 12.7891 4.8125C12.8349 4.56874 12.8654 4.08126 12.8808 3.34658L12.9039 2.24585L13.175 2.22054C13.5074 2.18952 13.6883 2.11694 13.9028 1.92852C14.4861 1.41646 14.3571 0.459207 13.6579 0.110773L13.4356 0H7.13608H0.836564L0.614286 0.110773ZM12.2064 2.96029C12.2064 4.49625 12.0013 5.50077 11.4532 6.6504C10.9282 7.75148 10.2145 8.6411 9.22247 9.43082C8.7631 9.79653 8.65026 9.9281 8.48315 10.2928C8.39554 10.4839 8.36117 10.637 8.3475 10.8965C8.3151 11.5109 8.53489 12.0004 9.02671 12.4095C9.72302 12.9885 9.92931 13.1779 10.2439 13.5271C10.8962 14.2511 11.521 15.3239 11.8134 16.2217C12.0967 17.0917 12.2064 17.8779 12.2064 19.0397V19.7656H7.13608H2.06577V19.0397C2.06577 17.4577 2.29514 16.384 2.88454 15.2071C3.42075 14.1364 4.02038 13.4257 5.24546 12.409C5.73715 12.0009 5.95711 11.5111 5.92467 10.8965C5.89403 10.3153 5.67734 9.929 5.14676 9.50976C4.13944 8.7138 3.40442 7.8311 2.88454 6.79293C2.29514 5.61597 2.06577 4.54227 2.06577 2.96029V2.23438H7.13608H12.2064V2.96029ZM4.59951 7.77554C4.96509 8.23715 5.54426 8.64467 6.16078 8.87408C6.44149 8.97858 6.6859 9.25968 6.75121 9.55324C6.7855 9.70741 6.79465 10.2354 6.78112 11.2793C6.76011 12.8963 6.74653 13.0114 6.5053 13.6156C6.21526 14.3419 5.65968 14.9983 4.90171 15.5101C4.42553 15.8316 3.94943 16.276 3.65321 16.6753C3.2426 17.2289 2.96811 17.9877 2.96811 18.5694V18.8633H7.13608H11.3041V18.5694C11.3041 17.9877 11.0296 17.2289 10.619 16.6753C10.3217 16.2745 9.84535 15.8305 9.37046 15.5115C8.62096 15.0081 8.05639 14.3406 7.76686 13.6156C7.52564 13.0114 7.51206 12.8963 7.49105 11.2793C7.47751 10.2354 7.48667 9.70741 7.52095 9.55324C7.58627 9.25968 7.83067 8.97858 8.11139 8.87408C8.7279 8.64467 9.30708 8.23715 9.67266 7.77554L9.80736 7.60547H7.13608H4.4648L4.59951 7.77554Z" fill="url(#paint0_linear_402_274)"/>
<defs>
<linearGradient id="paint0_linear_402_274" x1="0.575464" y1="3.3" x2="14.2894" y2="3.7174" gradientUnits="userSpaceOnUse">
<stop stop-color="#295A92"/>
<stop offset="0.485813" stop-color="#9D55C9"/>
<stop offset="1" stop-color="#0F73B7"/>
</linearGradient>
</defs>
</svg>
