<svg width="15" height="15" viewBox="0 0 15 15" fill="none" xmlns="http://www.w3.org/2000/svg">
<path fill-rule="evenodd" clip-rule="evenodd" d="M6.61549 0.0319134C4.22528 0.334636 2.17111 1.70355 0.975537 3.79042C-0.195166 5.83381 -0.320385 8.38333 0.644255 10.534C1.53209 12.5134 3.24541 14.0307 5.30741 14.6638C5.74971 14.7996 6.30237 14.9102 6.78125 14.9586C7.21964 15.003 8.19284 14.9791 8.61431 14.9137C11.7317 14.43 14.2201 12.0666 14.8555 8.98602C15.0537 8.02522 15.0477 6.90194 14.8392 5.91419C14.3555 3.62319 12.7571 1.63803 10.6091 0.660322C9.96576 0.36753 9.30888 0.170225 8.61431 0.0611751C8.19363 -0.00484683 7.03924 -0.021777 6.61549 0.0319134ZM8.31603 1.55894C10.9521 1.90774 13.0612 4.01332 13.4311 6.66544C13.4903 7.09025 13.4903 7.88521 13.4311 8.31002C13.0611 10.9626 10.9749 13.0467 8.31721 13.4186C7.88309 13.4794 7.11839 13.4792 6.68306 13.4183C4.02862 13.0468 1.94111 10.9607 1.5714 8.31002C1.51215 7.88521 1.51215 7.09025 1.5714 6.66544C1.84229 4.72322 3.04269 3.04224 4.7964 2.14933C5.88075 1.59722 7.08221 1.3957 8.31603 1.55894ZM7.24393 3.7753C7.11288 3.81728 6.89744 4.01244 6.81988 4.15945C6.72026 4.34823 6.72884 4.64363 6.8398 4.84434C6.98277 5.10298 7.2033 5.23232 7.50125 5.23232C7.7992 5.23232 8.01973 5.10298 8.1627 4.84434C8.27365 4.64363 8.28223 4.34823 8.18261 4.15945C8.10004 4.00298 7.8873 3.81669 7.74123 3.77293C7.60359 3.73169 7.37664 3.73277 7.24393 3.7753ZM7.21543 6.03765C7.05187 6.10874 6.92817 6.22204 6.83959 6.38188L6.75433 6.53577V8.61543V10.6951L6.819 10.816C7.05684 11.2606 7.62128 11.3749 7.98751 11.0525C8.05971 10.9889 8.1479 10.8825 8.18349 10.816L8.24817 10.6951V8.61543V6.53577L8.1629 6.38188C8.07269 6.21908 7.94785 6.10628 7.78045 6.03633C7.65195 5.98264 7.34032 5.98337 7.21543 6.03765Z" fill="#E2E2EC"/>
</svg>
