<svg width="36" height="36" viewBox="0 0 36 36" fill="none" xmlns="http://www.w3.org/2000/svg">
<path d="M22.7884 8.86147H13.2124C10.8143 8.86147 8.86196 10.8138 8.86196 13.2119V22.7879C8.86196 25.1861 10.8143 27.1384 13.2124 27.1384H22.7884C25.1866 27.1384 27.1389 25.1861 27.1389 22.7879V13.2119C27.1389 10.8138 25.1866 8.86147 22.7884 8.86147ZM18.0004 23.6907C14.8629 23.6907 12.3097 21.1375 12.3097 17.9999C12.3097 14.8624 14.8629 12.3092 18.0004 12.3092C21.138 12.3092 23.6912 14.8624 23.6912 17.9999C23.6912 21.1375 21.138 23.6907 18.0004 23.6907ZM23.8463 13.4722C23.1124 13.4722 22.517 12.8769 22.517 12.1416C22.517 11.4078 23.1124 10.8124 23.8463 10.8124C24.5815 10.8124 25.1769 11.4078 25.1769 12.1416C25.1769 12.8769 24.5815 13.4722 23.8463 13.4722ZM18.0004 14.2476C15.9318 14.2476 14.2481 15.9313 14.2481 17.9999C14.2481 20.0685 15.9318 21.7522 18.0004 21.7522C20.069 21.7522 21.7527 20.0685 21.7527 17.9999C21.7527 15.9313 20.069 14.2476 18.0004 14.2476ZM18.0004 0.276855C8.21257 0.276855 0.277344 8.21209 0.277344 17.9999C0.277344 27.7878 8.21257 35.723 18.0004 35.723C27.7883 35.723 35.7235 27.7878 35.7235 17.9999C35.7235 8.21209 27.7883 0.276855 18.0004 0.276855ZM29.0773 22.7879C29.0773 26.255 26.2555 29.0769 22.7884 29.0769H13.2124C9.74534 29.0769 6.9235 26.255 6.9235 22.7879V13.2119C6.9235 9.74486 9.74534 6.92301 13.2124 6.92301H22.7884C26.2555 6.92301 29.0773 9.74486 29.0773 13.2119V22.7879Z" fill="url(#paint0_linear_984_1042)"/>
<defs>
<linearGradient id="paint0_linear_984_1042" x1="5.61855" y1="6.18455" x2="30.3246" y2="9.47006" gradientUnits="userSpaceOnUse">
<stop stop-color="#F5F5F5"/>
<stop offset="0.477732" stop-color="#DEBAF4"/>
<stop offset="1" stop-color="#B0CAFC"/>
</linearGradient>
</defs>
</svg>
