<svg width="38" height="38" viewBox="0 0 38 38" fill="none" xmlns="http://www.w3.org/2000/svg">
<g clip-path="url(#clip0_3056_3798)">
<path d="M23.8182 9.26342H13.8075C11.3005 9.26342 9.25952 11.3044 9.25952 13.8114V23.8221C9.25952 26.3292 11.3005 28.3701 13.8075 28.3701H23.8182C26.3253 28.3701 28.3662 26.3292 28.3662 23.8221V13.8114C28.3662 11.3044 26.3253 9.26342 23.8182 9.26342ZM18.8128 24.7659C15.5329 24.7659 12.8638 22.0968 12.8638 18.8167C12.8638 15.5368 15.5329 12.8677 18.8128 12.8677C22.0929 12.8677 24.762 15.5368 24.762 18.8167C24.762 22.0968 22.0929 24.7659 18.8128 24.7659ZM24.9241 14.0835C24.1569 14.0835 23.5345 13.4612 23.5345 12.6925C23.5345 11.9254 24.1569 11.3029 24.9241 11.3029C25.6927 11.3029 26.3152 11.9254 26.3152 12.6925C26.3152 13.4612 25.6927 14.0835 24.9241 14.0835ZM18.8128 14.8941C16.6503 14.8941 14.8902 16.6542 14.8902 18.8167C14.8902 20.9793 16.6503 22.7394 18.8128 22.7394C20.9754 22.7394 22.7355 20.9793 22.7355 18.8167C22.7355 16.6542 20.9754 14.8941 18.8128 14.8941ZM18.8128 0.289062C8.58064 0.289062 0.285156 8.58456 0.285156 18.8167C0.285156 29.049 8.58064 37.3445 18.8128 37.3445C29.0451 37.3445 37.3406 29.049 37.3406 18.8167C37.3406 8.58456 29.0451 0.289062 18.8128 0.289062ZM30.3926 23.8221C30.3926 27.4466 27.4427 30.3966 23.8182 30.3966H13.8075C10.183 30.3966 7.23305 27.4466 7.23305 23.8221V13.8114C7.23305 10.1869 10.183 7.23695 13.8075 7.23695H23.8182C27.4427 7.23695 30.3926 10.1869 30.3926 13.8114V23.8221Z" fill="url(#paint0_linear_3056_3798)"/>
</g>
<defs>
<linearGradient id="paint0_linear_3056_3798" x1="32.7665" y1="-19.2336" x2="59.2925" y2="8.0134" gradientUnits="userSpaceOnUse">
<stop stop-color="#295A92"/>
<stop offset="0.485813" stop-color="#9D55C9"/>
<stop offset="1" stop-color="#0F73B7"/>
</linearGradient>
<clipPath id="clip0_3056_3798">
<rect width="37.6344" height="37.6344" fill="white"/>
</clipPath>
</defs>
</svg>
