<svg width="30" height="22" viewBox="0 0 30 22" fill="none" xmlns="http://www.w3.org/2000/svg">
<path d="M4.77128 19.8023L7.48961 17.38C7.61427 17.2692 7.7751 17.2077 7.94188 17.2072H14.5246C14.5536 17.2075 14.5824 17.202 14.6092 17.191C14.6361 17.1801 14.6605 17.1639 14.681 17.1434C14.7015 17.1229 14.7177 17.0984 14.7287 17.0716C14.7396 17.0447 14.7451 17.016 14.7448 16.9869V15.6041H16.1016V16.9869C16.0997 17.4059 15.9325 17.8071 15.6363 18.1033C15.34 18.3996 14.9388 18.5668 14.5199 18.5687H8.19761L4.57001 21.8008C4.4754 21.8955 4.35493 21.9601 4.22373 21.9866C4.09252 22.013 3.95641 22.0002 3.83249 21.9496C3.70856 21.899 3.60233 21.813 3.52712 21.7022C3.45192 21.5915 3.41109 21.4611 3.40975 21.3272V18.5687H1.58411C1.16477 18.5674 0.762929 18.4005 0.466188 18.1042C0.169447 17.8079 0.001873 17.4063 0 16.9869L0 6.76968C0.00492949 6.3513 0.173483 5.95149 0.469567 5.65585C0.76565 5.36021 1.16572 5.19226 1.58411 5.18796H10.2648V6.54947H1.58411C1.52657 6.55279 1.47221 6.57699 1.43123 6.61753C1.39025 6.65808 1.36547 6.71217 1.36153 6.76968V16.9869C1.36174 17.0157 1.36772 17.0442 1.37911 17.0706C1.39049 17.097 1.40706 17.1209 1.42783 17.1409C1.46994 17.1815 1.52562 17.2051 1.58411 17.2072H4.08933C4.2702 17.2072 4.44365 17.279 4.57154 17.4069C4.69944 17.5348 4.77128 17.7082 4.77128 17.8891V19.8023ZM4.82101 15.1897L7.00893 8.58108H9.09977L11.2877 15.1897H9.55441L9.18738 13.9869H6.90238L6.54483 15.1897H4.82101ZM7.29071 12.6064H8.79905L8.0508 9.89997L7.29071 12.6064ZM18.1451 3.16108H20.2051V2.63068C20.2051 2.58735 20.2224 2.54579 20.253 2.51515C20.2836 2.48451 20.3252 2.4673 20.3685 2.4673H21.4696C21.4909 2.4673 21.5121 2.47154 21.5318 2.47978C21.5515 2.48802 21.5693 2.50009 21.5843 2.51529C21.5993 2.5305 21.6111 2.54853 21.619 2.56834C21.627 2.58814 21.6309 2.60934 21.6306 2.63068V3.16108H23.9417C23.963 3.16108 23.9841 3.16532 24.0038 3.17356C24.0235 3.1818 24.0414 3.19387 24.0564 3.20907C24.0713 3.22427 24.0832 3.24231 24.0911 3.26211C24.0991 3.28192 24.103 3.30312 24.1027 3.32446V4.38052C24.1027 4.42322 24.0857 4.46418 24.0555 4.49437C24.0253 4.52457 23.9844 4.54153 23.9417 4.54153H23.5746C23.5262 4.85278 23.4541 5.15991 23.3592 5.46026V5.47447C23.2504 5.81328 23.1126 6.14206 22.9472 6.45712C22.7953 6.73815 22.6261 7.0094 22.4404 7.26929C22.2818 7.50608 22.1066 7.71919 21.9195 7.9394C22.1871 8.26286 22.4783 8.56599 22.7909 8.84628C23.1695 9.17171 23.5724 9.46776 23.9961 9.73186C24.014 9.74318 24.0295 9.75793 24.0417 9.77526C24.0539 9.79258 24.0626 9.81215 24.0672 9.83283C24.0718 9.8535 24.0723 9.87489 24.0686 9.89576C24.065 9.91662 24.0572 9.93657 24.0458 9.95444L23.4799 10.8376C23.4682 10.8571 23.4525 10.8739 23.434 10.887C23.4154 10.9001 23.3943 10.9091 23.372 10.9136C23.3497 10.9181 23.3267 10.9178 23.3045 10.9129C23.2824 10.908 23.2614 10.8985 23.2431 10.885C22.779 10.5967 22.3374 10.2737 21.9219 9.91892C21.5841 9.61756 21.2676 9.29317 20.9747 8.9481C20.6716 9.21803 20.3993 9.47139 20.127 9.70818C19.805 9.97338 19.4664 10.2291 19.0686 10.5038C19.0507 10.5176 19.0302 10.5275 19.0083 10.533C18.9864 10.5384 18.9636 10.5393 18.9413 10.5355C18.9191 10.5317 18.8979 10.5234 18.879 10.511C18.8602 10.4986 18.8441 10.4824 18.8318 10.4635L18.2327 9.59689C18.2189 9.57903 18.209 9.5585 18.2035 9.53661C18.198 9.51471 18.1972 9.49193 18.201 9.46968C18.2047 9.44744 18.2131 9.42621 18.2255 9.40736C18.2379 9.3885 18.254 9.37241 18.2729 9.3601C18.666 9.09017 18.9833 8.84155 19.3053 8.58345C19.58 8.34667 19.8452 8.10988 20.1317 7.83521C19.8927 7.49708 19.6737 7.14524 19.4758 6.78152C19.2502 6.34881 19.0716 5.89316 18.9431 5.42237C18.9373 5.40201 18.9356 5.3807 18.9381 5.35968C18.9405 5.33865 18.9471 5.31832 18.9575 5.29984C18.9678 5.28137 18.9817 5.26512 18.9983 5.25201C19.0149 5.23891 19.034 5.22921 19.0544 5.22347L20.0654 4.9417C20.0858 4.93593 20.1071 4.93423 20.1281 4.9367C20.1492 4.93917 20.1695 4.94576 20.188 4.9561C20.2064 4.96643 20.2227 4.98031 20.2358 4.99694C20.2489 5.01356 20.2586 5.03261 20.2643 5.05299C20.427 5.67797 20.7014 6.26838 21.0742 6.79573L21.3749 6.39319C21.5047 6.20494 21.6241 6.00969 21.7324 5.80833C21.8472 5.58686 21.9439 5.35642 22.0213 5.11929C22.0835 4.92958 22.1357 4.73673 22.1776 4.54153H18.1522C18.1093 4.54154 18.0681 4.52465 18.0375 4.49452C18.0069 4.46439 17.9894 4.42344 17.9888 4.38052V3.31499C17.9888 3.27166 18.006 3.2301 18.0367 3.19946C18.0673 3.16882 18.1089 3.15161 18.1522 3.15161L18.1451 3.16108ZM24.5384 16.6152L20.8989 13.3807H14.5719C14.153 13.3782 13.7519 13.2109 13.4554 12.9148C13.1589 12.6188 12.9909 12.2179 12.9878 11.799V1.58409C12.9916 1.16356 13.1619 0.76165 13.4614 0.466466L13.5088 0.423845C13.7977 0.154606 14.177 0.00338593 14.5719 0L27.5124 0C27.9323 0.00382922 28.3334 0.17416 28.6277 0.47357L28.6727 0.520927C28.9426 0.811309 29.0939 1.19236 29.0965 1.58883V11.799C29.0934 12.2179 28.9255 12.6188 28.629 12.9148C28.3325 13.2109 27.9314 13.3782 27.5124 13.3807H25.6892V16.1322C25.6872 16.266 25.6459 16.3963 25.5704 16.5068C25.4948 16.6173 25.3885 16.7031 25.2645 16.7536C25.1406 16.8041 25.0045 16.817 24.8733 16.7907C24.742 16.7644 24.6215 16.7001 24.5265 16.6057L24.5384 16.6152ZM21.6093 12.1921L24.3253 14.6144V12.7011C24.3253 12.5203 24.3971 12.3468 24.525 12.2189C24.6529 12.091 24.8263 12.0192 25.0072 12.0192H27.5124C27.5412 12.0189 27.5696 12.0128 27.596 12.0014C27.6224 11.9901 27.6463 11.9736 27.6663 11.9529C27.6875 11.9332 27.7045 11.9094 27.7163 11.8829C27.7281 11.8565 27.7345 11.8279 27.735 11.799V1.58409C27.7326 1.53395 27.7144 1.48585 27.6829 1.44676L27.6663 1.42071C27.6252 1.37972 27.5704 1.35528 27.5124 1.35204H14.5719C14.5229 1.36 14.4778 1.38418 14.4441 1.42071H14.418C14.3974 1.44072 14.3809 1.46462 14.3695 1.49103C14.3581 1.51745 14.3521 1.54586 14.3517 1.57462V11.799C14.3514 11.828 14.3569 11.8568 14.3679 11.8836C14.3788 11.9105 14.395 11.9349 14.4155 11.9554C14.436 11.9759 14.4604 11.9921 14.4873 12.0031C14.5142 12.014 14.5429 12.0195 14.5719 12.0192H21.157C21.3239 12.0191 21.485 12.0807 21.6093 12.1921Z" fill="url(#paint0_linear_363_632)"/>
<defs>
<linearGradient id="paint0_linear_363_632" x1="1.17325" y1="3.3" x2="29.0517" y2="5.02994" gradientUnits="userSpaceOnUse">
<stop stop-color="#295A92"/>
<stop offset="0.485813" stop-color="#9D55C9"/>
<stop offset="1" stop-color="#0F73B7"/>
</linearGradient>
</defs>
</svg>
