<svg width="19" height="22" viewBox="0 0 19 22" fill="none" xmlns="http://www.w3.org/2000/svg">
<path fill-rule="evenodd" clip-rule="evenodd" d="M8.75857 0.013464C8.70752 0.022499 8.51539 0.0494111 8.33161 0.0732343C5.90333 0.388033 3.66376 2.06878 2.51986 4.43489C2.35228 4.78154 2.08029 5.495 2.00377 5.78864L1.9571 5.96784L1.58023 5.98343C1.24536 5.9973 1.17452 6.01351 0.944521 6.12888C0.593975 6.30468 0.32919 6.58604 0.153471 6.96937C0.0163269 7.26861 0.0157329 7.27201 0.00240453 7.85469C-0.00539199 8.19463 0.00626561 8.52329 0.0302121 8.63943C0.13476 9.14648 0.48642 9.60908 0.943482 9.84082L1.20337 9.97257L1.9192 9.98519C2.6334 9.99778 2.6354 9.99758 2.79995 9.89727C2.9036 9.8341 3.00321 9.72897 3.06796 9.61437L3.17106 9.43201L3.19289 8.31228C3.21138 7.36282 3.22716 7.13162 3.29666 6.79176C3.42333 6.17232 3.58179 5.69396 3.84167 5.14615C4.69023 3.35759 6.28488 2.07373 8.18311 1.65078C8.75957 1.52232 9.85494 1.50116 10.4509 1.60695C12.9 2.04172 14.8693 3.97441 15.5129 6.57477C15.6443 7.10536 15.7001 7.62453 15.7255 8.55225C15.7535 9.57267 15.7708 9.63881 16.0666 9.85511C16.2253 9.97118 16.2336 9.97272 16.7735 9.98562C17.074 9.99276 17.4193 9.97975 17.5408 9.95662C18.0539 9.85909 18.5214 9.47587 18.7561 8.96048C18.8727 8.70449 18.8758 8.68399 18.8878 8.07918C18.8988 7.52654 18.8916 7.43317 18.82 7.21043C18.6621 6.71917 18.354 6.35507 17.8992 6.1222C17.6766 6.00822 17.6151 5.9949 17.2525 5.98201L16.8518 5.96772L16.791 5.74999C16.4053 4.36886 15.4334 2.83765 14.3345 1.88013C13.2454 0.93114 12.0454 0.34919 10.6334 0.0854355C10.3159 0.0261284 8.97668 -0.0253018 8.75857 0.013464ZM8.8871 2.92777C6.74383 3.18056 5.00012 4.86293 4.57514 7.08791C4.48741 7.54735 4.48741 8.49804 4.57514 8.95747C4.69806 9.60105 4.96883 10.2983 5.30474 10.8361C5.38913 10.9712 5.45314 11.0842 5.44698 11.087C5.44081 11.0899 5.23528 11.1938 4.99025 11.3179C2.77722 12.4386 1.29808 14.6371 1.03507 17.1966C1.01109 17.43 1.00003 18.3411 1.00674 19.5352L1.01773 21.4915L1.1296 21.6589C1.19501 21.7567 1.3101 21.8623 1.40663 21.9131L1.57181 22H9.45513C16.6422 22 17.3489 21.9945 17.4573 21.9376C17.6263 21.8488 17.7393 21.7329 17.8235 21.5621C17.8942 21.4187 17.8961 21.3427 17.8819 19.2454L17.8672 17.0771L17.7663 16.5944C17.5506 15.5634 17.1961 14.6803 16.672 13.8682C15.8707 12.6269 14.8645 11.7698 13.4067 11.087C13.4005 11.0841 13.4694 10.9625 13.5597 10.8167C15.0257 8.45278 14.4075 5.33318 12.1637 3.77232C11.7548 3.48791 11.5907 3.40037 11.1331 3.22268C10.4633 2.96271 9.57728 2.84634 8.8871 2.92777ZM10.1215 4.50624C10.7498 4.64111 11.2959 4.93444 11.7703 5.39202C12.3496 5.95069 12.7213 6.66635 12.8444 7.46001C12.9058 7.85589 12.8709 8.57383 12.771 8.96867C12.4477 10.2472 11.3918 11.2801 10.1248 11.5573C9.79372 11.6297 9.05996 11.6297 8.72887 11.5573C7.69133 11.3303 6.79165 10.6065 6.32728 9.62518C6.09565 9.1357 6.01066 8.78866 5.98497 8.22698C5.96091 7.7004 6.00573 7.31692 6.13901 6.9098C6.55286 5.64539 7.53128 4.75027 8.78207 4.4918C9.15812 4.41408 9.72029 4.42014 10.1215 4.50624ZM7.36633 12.6942C8.49471 13.2207 9.80553 13.2989 10.9361 12.9071C11.3022 12.7803 11.7869 12.5476 12.0643 12.3655L12.2005 12.276L12.5308 12.3897C13.9154 12.8663 15.1421 13.9766 15.7898 15.3395C16.3034 16.4205 16.405 17.0774 16.406 19.3262L16.4066 20.4942H9.42684H2.4471L2.44743 19.3069C2.44791 17.4981 2.51099 16.8499 2.76237 16.07C3.31697 14.3494 4.68912 12.9361 6.34205 12.3829L6.65429 12.2784L6.89895 12.4343C7.03349 12.5201 7.24381 12.6371 7.36633 12.6942Z" fill="url(#paint0_linear_363_640)"/>
<defs>
<linearGradient id="paint0_linear_363_640" x1="0.761772" y1="3.3" x2="18.9031" y2="4.03092" gradientUnits="userSpaceOnUse">
<stop stop-color="#295A92"/>
<stop offset="0.485813" stop-color="#9D55C9"/>
<stop offset="1" stop-color="#0F73B7"/>
</linearGradient>
</defs>
</svg>
