<svg width="140" height="140" viewBox="0 0 140 140" fill="none" xmlns="http://www.w3.org/2000/svg">
<path fill-rule="evenodd" clip-rule="evenodd" d="M108.161 0.281682C100.655 1.73832 93.8136 6.50094 90.0276 12.9049C88.1398 16.0973 87.8177 17.1484 88.4372 18.0939C88.6924 18.4838 89.2142 18.9217 89.5964 19.067C90.7912 19.5212 91.6232 18.8653 92.9159 16.4498C97.0243 8.77415 104.511 4.23128 113.086 4.21076C116.733 4.202 119.34 4.75423 122.436 6.19171C128.614 9.05984 132.51 13.4571 134.731 20.068C135.68 22.8937 135.932 28.1803 135.28 31.5785C133.953 38.4953 130.266 45.454 123.809 53.2268C120.616 57.0694 113.715 63.9306 113.042 63.9306C112.474 63.9306 103.902 55.295 101.634 52.4373C94.7124 43.7174 91.2454 36.2801 90.5365 28.6305C90.3113 26.2024 90.1786 25.6836 89.6779 25.2783C88.7559 24.5315 87.3838 24.656 86.6747 25.5511C86.1283 26.2407 86.0938 26.4985 86.2632 28.6297C86.9745 37.5827 91.18 46.5754 98.9687 55.7985C102.252 59.6871 102.143 59.5204 101.549 59.7243C99.5414 60.4145 96.9715 61.9069 95.8738 63.0207C92.0916 66.8578 94.0246 71.5769 100.39 74.045C106.539 76.4296 114.42 76.8893 121.704 75.2887C128.421 73.8127 132.188 70.8641 132.21 67.065C132.228 64.0764 129.601 61.5386 124.62 59.7325C124.156 59.5645 124.178 59.475 124.894 58.6207C130.098 52.4055 132.009 49.7864 134.47 45.4997C139.024 37.5663 140.856 29.3061 139.627 22.255C137.782 11.6735 130.127 3.47847 119.379 0.577498C117.114 -0.0338367 110.663 -0.203774 108.161 0.281682ZM111.034 14.9762C106.847 15.6701 103.153 18.8869 101.704 23.1019C101.079 24.9171 101.018 28.1976 101.574 30.0305C103.539 36.5045 110.241 40.1651 116.557 38.214C124.325 35.8144 127.506 26.6635 122.905 19.9541C120.289 16.1392 115.68 14.2061 111.034 14.9762ZM116.538 19.9432C120.225 21.8522 121.79 26.097 120.205 29.8904C119.607 31.3224 117.72 33.1627 116.164 33.8323C111.628 35.784 106.583 33.1356 105.573 28.2731C104.573 23.4541 108.208 19.1031 113.267 19.064C114.496 19.0544 115.173 19.2364 116.538 19.9432ZM28.2711 42.4767C16.3327 44.7217 6.29557 53.1994 2.06085 64.6147C-0.568413 71.702 -0.682503 79.5673 1.72241 87.927C4.34538 97.0439 10.2047 106.811 18.9223 116.597L21.3497 119.322L19.5601 119.925C15.2643 121.375 11.9935 123.678 10.7839 126.106C7.09092 133.518 18.0266 139.978 34.3077 140C44.2089 140.014 52.9249 137.473 56.6535 133.486C58.8783 131.107 59.26 128.187 57.6794 125.639C56.3602 123.513 53.3484 121.411 49.801 120.14C48.6437 119.726 47.648 119.349 47.5889 119.303C47.5296 119.258 48.3298 118.282 49.3673 117.134C52.1539 114.051 56.3 108.763 56.4863 108.055C56.8368 106.721 55.0037 105.162 53.7544 105.732C53.3996 105.893 51.7966 107.635 50.1922 109.602C46.2472 114.439 40.3871 120.53 35.8429 124.518L34.3857 125.796L33.3805 124.931C28.0692 120.362 21.5267 113.472 17.2876 107.984C11.0928 99.9632 6.85262 91.6361 5.10543 84.0581C4.39873 80.9927 4.13252 74.7981 4.58177 71.8665C7.00091 56.0793 21.6112 44.7149 37.3146 46.406C53.4461 48.1432 65.2299 61.83 64.4181 77.8868C64.1131 83.9243 62.608 89.0676 59.1372 95.934C57.8857 98.41 56.8619 100.641 56.8619 100.891C56.8619 101.742 57.9396 102.789 58.8149 102.789C60.1736 102.789 60.5993 102.359 62.2006 99.3738C68.7962 87.0748 70.403 75.567 66.939 65.4357C64.4118 58.0435 59.5867 51.7978 53.2023 47.6533C49.401 45.1861 46.639 43.9913 42.0877 42.8456C38.9871 42.0651 31.5198 41.8656 28.2711 42.4767ZM30.5121 61.8785C28.6826 62.3815 26.4074 63.5352 25.4139 64.4634C24.3795 65.4296 24.3007 66.5853 25.2107 67.4404C26.0968 68.2729 27.0933 68.1842 29.0476 67.0992C35.6481 63.4345 43.6223 67.2563 44.8962 74.6952C46.1025 81.7384 39.8401 88.011 32.7198 86.8923C29.252 86.3472 26.2528 84.1055 24.7751 80.9536C23.7869 78.8456 23.5415 77.0401 23.8637 74.2527C24.0977 72.2307 24.078 72.0895 23.4752 71.4478C22.6506 70.5696 21.324 70.5423 20.559 71.3876C19.8416 72.1803 19.3781 74.1161 19.3833 76.2977C19.3978 82.5681 23.5089 88.4146 29.3655 90.4947C31.682 91.3175 35.6462 91.5001 37.9838 90.8915C43.1403 89.5492 47.2748 85.4948 48.8568 80.2292C49.5274 77.9973 49.4034 74.0351 48.5898 71.6954C46.9378 66.944 43.1597 63.3589 38.276 61.9089C36.4787 61.3752 32.4005 61.3591 30.5121 61.8785ZM107.686 64.9568C111.554 68.4425 112.128 68.8563 113.095 68.8563C114.094 68.8563 114.475 68.5846 118.211 65.2039L120.6 63.042L122.867 63.7492C125.532 64.58 127.655 65.8875 127.895 66.8458C128.241 68.225 125.481 69.969 121.157 71.1038C119.107 71.6418 118.152 71.714 113.086 71.714C108.037 71.714 107.059 71.6407 105.015 71.1079C100.802 70.0097 97.859 68.0939 98.2916 66.7314C98.5572 65.894 100.358 64.786 102.878 63.9084C104.128 63.473 105.261 63.1154 105.394 63.1132C105.528 63.1113 106.559 63.9407 107.686 64.9568ZM82.9398 65.3008C81.5951 65.8429 81.3239 67.9267 82.4801 68.8363C83.0284 69.2679 83.5688 69.397 84.7373 69.3762C86.8052 69.3396 87.493 69.113 88.1313 68.2578C88.7556 67.4216 88.6213 66.4156 87.7715 65.5657C87.3357 65.1297 86.8733 65.0285 85.3844 65.0424C84.3688 65.052 83.2687 65.1683 82.9398 65.3008ZM74.1634 70.1271C72.8359 71.5312 72.7103 71.7715 72.7853 72.7679C72.8857 74.1093 73.9242 75.0485 75.0063 74.7767C75.8107 74.5748 77.9316 72.4433 78.3778 71.3881C78.9562 70.021 77.974 68.6078 76.4342 68.5914C75.7984 68.5846 75.3086 68.916 74.1634 70.1271ZM70.8991 78.8226C70.1768 79.446 70.1347 79.6028 70.1861 81.4757C70.2559 84.002 70.7784 84.8274 72.385 84.9475C73.3136 85.017 73.5825 84.9114 74.0758 84.2844C74.5822 83.6403 74.6397 83.3122 74.4963 81.8758C74.2783 79.6901 73.9344 78.8454 73.1095 78.4696C72.1275 78.0219 71.7587 78.0811 70.8991 78.8226ZM75.2556 88.1949C75.0643 88.2721 74.716 88.7058 74.4816 89.1592C74.1385 89.8231 74.1171 90.1323 74.3718 90.7478C74.6815 91.4957 76.1056 92.8073 77.2952 93.4405C78.8172 94.2505 80.3912 93.3954 80.3912 91.7584C80.3912 90.6736 80.1155 90.2943 78.3866 89.0003C77.1505 88.075 76.1765 87.8244 75.2556 88.1949ZM85.316 91.9083C84.279 92.4556 83.8301 93.5749 84.2749 94.5031C84.8156 95.6308 85.7362 95.9822 87.8798 95.8793C89.537 95.7999 89.8366 95.6998 90.4106 95.0323C90.7685 94.6158 91.0615 94.0428 91.0615 93.7585C91.0615 93.4742 90.7685 92.9011 90.4106 92.4846C89.8366 91.8172 89.537 91.7171 87.8798 91.6377C86.6864 91.5802 85.7502 91.6793 85.316 91.9083ZM96.0741 91.8801C94.5655 92.6461 94.6946 95.0255 96.2806 95.6825C97.4431 96.1642 100.466 95.9138 101.169 95.2775C101.937 94.5827 101.932 92.9299 101.16 92.2315C100.486 91.621 97.0519 91.3837 96.0741 91.8801ZM106.865 91.9976C105.488 92.7452 105.52 94.8079 106.921 95.5323C107.362 95.7608 108.413 95.9477 109.256 95.9477C111.815 95.9477 113.022 94.9015 112.565 93.0793C112.471 92.7058 112.033 92.2132 111.591 91.9847C110.568 91.4555 107.85 91.4628 106.865 91.9976ZM117.874 91.9234C116.841 92.4461 116.387 93.5719 116.833 94.5031C117.322 95.5219 118.273 95.9389 120.118 95.9436C122.063 95.9488 122.939 95.5624 123.376 94.5064C123.787 93.5152 123.328 92.4685 122.243 91.9193C121.368 91.4765 118.752 91.479 117.874 91.9234ZM128.349 94.1624C127.351 94.5961 126.954 95.6152 127.346 96.7314C127.69 97.7089 130.323 99.5051 131.412 99.5051C133.259 99.5051 134.191 97.2547 132.853 96.0238C132.191 95.4141 129.63 93.7516 129.38 93.7692C129.296 93.7752 128.832 93.952 128.349 94.1624ZM135.472 102.02C135.144 102.178 134.727 102.668 134.544 103.108C134.256 103.804 134.31 104.156 134.96 105.814C136.032 108.546 137.405 109.276 138.816 107.864C139.664 107.017 139.662 106.216 138.809 104.117C137.872 101.81 137.017 101.273 135.472 102.02ZM136.471 112.865C135.753 113.446 134.79 116.845 135.103 117.692C135.662 119.202 137.511 119.565 138.613 118.382C139.149 117.807 139.762 115.609 139.762 114.261C139.762 112.621 137.801 111.788 136.471 112.865ZM130.733 122.64C129.039 123.967 128.544 124.614 128.544 125.502C128.544 126.667 129.39 127.527 130.536 127.527C131.295 127.527 131.833 127.245 133.034 126.219C134.694 124.801 135.072 123.992 134.542 122.996C133.692 121.4 132.463 121.285 130.733 122.64ZM27.2454 125.16C30.7584 128.371 33.3108 130.412 34.0445 130.596C34.4549 130.699 34.9885 130.579 35.4549 130.279C36.4388 129.646 41.1058 125.582 42.4853 124.156C43.7197 122.881 43.9963 122.841 46.5468 123.571C49.5681 124.435 52.1068 125.739 53.3096 127.043C54.8168 128.679 54.767 129.371 53.0245 131.007C46.9167 136.742 25.8465 137.4 17.2337 132.125C13.5918 129.894 13.4594 128.082 16.7779 125.878C18.3048 124.864 23.1086 123.046 24.2725 123.042C24.7067 123.04 25.7023 123.749 27.2454 125.16ZM120.176 126.581C119.711 126.692 119.18 126.876 118.996 126.99C118.411 127.351 118.15 128.438 118.445 129.284C118.858 130.469 119.718 130.8 121.969 130.638C124.055 130.489 124.812 130.07 125.105 128.9C125.299 128.13 124.672 126.744 124.018 126.493C123.443 126.273 121.256 126.323 120.176 126.581ZM65.4411 126.868C64.6767 127.176 63.9754 128.194 63.9754 128.996C63.9754 129.346 64.2778 129.934 64.6471 130.303C65.2392 130.896 65.5582 130.975 67.3462 130.975C68.9831 130.975 69.5125 130.866 70.0944 130.408C71.3642 129.409 70.9828 127.447 69.4124 126.899C68.3981 126.545 66.2813 126.529 65.4411 126.868ZM75.9489 127.025C74.5915 127.761 74.6331 129.922 76.0183 130.623C76.875 131.057 79.687 131.078 80.4777 130.657C81.3185 130.209 81.7417 129.582 81.7417 128.786C81.7417 127.989 81.3185 127.363 80.4777 126.915C79.6416 126.47 76.8471 126.537 75.9489 127.025ZM86.5168 127.237C85.5784 128.045 85.5102 129.375 86.3633 130.229C87.0952 130.96 90.2328 131.218 91.3351 130.636C92.3482 130.101 92.8314 128.935 92.4358 127.98C92.0128 126.959 91.1165 126.597 89.012 126.597C87.571 126.597 87.1299 126.71 86.5168 127.237ZM97.2051 127.268C96.3843 128.089 96.3482 129.024 97.1006 129.98C97.633 130.657 97.8081 130.701 99.9734 130.701C102.648 130.701 103.373 130.274 103.373 128.697C103.373 127.139 102.5 126.597 99.9917 126.597C98.1107 126.597 97.8021 126.671 97.2051 127.268ZM108.072 127.23C107.282 128.071 107.299 129.344 108.11 130.106C108.653 130.616 109.061 130.701 110.963 130.701C113.035 130.701 113.221 130.653 113.75 129.98C114.062 129.584 114.317 128.985 114.317 128.649C114.317 128.313 114.062 127.714 113.75 127.318C113.219 126.643 113.039 126.597 110.925 126.597C108.919 126.597 108.601 126.667 108.072 127.23Z" fill="white"/>
</svg>
