<svg width="22" height="22" viewBox="0 0 22 22" fill="none" xmlns="http://www.w3.org/2000/svg">
<path d="M20.353 8.59375H13.329V1.5625C13.329 0.699707 12.63 0 11.7681 0H10.2072C9.34535 0 8.64637 0.699707 8.64637 1.5625V8.59375H1.6224C0.760505 8.59375 0.0615234 9.29346 0.0615234 10.1562V11.7188C0.0615234 12.5815 0.760505 13.2812 1.6224 13.2812H8.64637V20.3125C8.64637 21.1753 9.34535 21.875 10.2072 21.875H11.7681C12.63 21.875 13.329 21.1753 13.329 20.3125V13.2812H20.353C21.2149 13.2812 21.9139 12.5815 21.9139 11.7188V10.1562C21.9139 9.29346 21.2149 8.59375 20.353 8.59375Z" fill="url(#paint0_linear_449_412)"/>
<defs>
<linearGradient id="paint0_linear_449_412" x1="3.35434" y1="3.64583" x2="18.586" y2="5.66931" gradientUnits="userSpaceOnUse">
<stop stop-color="#F5F5F5"/>
<stop offset="0.477732" stop-color="#DEBAF4"/>
<stop offset="1" stop-color="#B0CAFC"/>
</linearGradient>
</defs>
</svg>
