<svg width="50" height="40" viewBox="0 0 50 40" fill="none" xmlns="http://www.w3.org/2000/svg">
<path fill-rule="evenodd" clip-rule="evenodd" d="M15.3017 0.738582C12.1984 2.45551 10.019 4.08463 7.69369 6.42566C5.16631 8.96993 3.49912 11.3205 2.14791 14.2445C0.726887 17.3195 0.128791 19.8455 0.0156523 23.2496C-0.1694 28.8204 1.28376 33.0813 4.51632 36.445C6.58337 38.5961 9.13736 39.6625 12.2216 39.6625C16.1873 39.6625 19.0672 37.7669 20.8453 33.9864C21.6677 32.2376 21.8843 31.2848 21.8865 29.4044C21.8889 27.5071 21.6722 26.5452 20.8519 24.8103C19.485 21.9192 16.6459 19.8175 13.3784 19.2782C11.8329 19.0231 9.73216 19.165 8.60315 19.6004C8.0987 19.7951 7.67117 19.939 7.65325 19.9202C7.56119 19.8246 8.19274 17.0901 8.54901 16.0417C10.0689 11.5685 13.2169 7.72884 17.7314 4.84209C18.3585 4.44106 18.9855 4.02896 19.1244 3.92624C19.3644 3.74898 19.3147 3.64463 18.144 1.86875C17.4658 0.839796 16.8482 -0.00109313 16.7717 1.06665e-06C16.6951 0.00123204 16.0337 0.333457 15.3017 0.738582ZM43.5604 0.657338C33.5725 5.98702 27.5641 15.4607 28.0788 25.068C28.2933 29.0708 29.2442 32.0034 31.2332 34.7954C32.8208 37.0241 34.4781 38.303 36.8501 39.1298C37.9142 39.5006 38.3491 39.5756 39.7573 39.6315C43.5949 39.7835 46.1857 38.5021 48.1088 35.5006C49.5333 33.2773 50.1031 31.2637 49.9849 28.8706C49.7962 25.0561 47.765 21.8954 44.4462 20.2523C42.7491 19.4121 41.8369 19.2193 39.5501 19.2168C37.6951 19.2149 37.5226 19.2374 36.7247 19.5861C36.2574 19.7903 35.8478 19.9291 35.8144 19.8946C35.7022 19.778 36.0862 17.8563 36.4831 16.5476C37.7882 12.246 40.4962 8.62786 44.6377 5.65206C45.3167 5.16433 46.2427 4.54884 46.6954 4.28459C47.1424 4.02364 47.2782 3.44062 46.9925 3.009L46.286 1.94165C45.6081 0.917346 44.9975 0.0599081 44.9292 0.0362462C44.8609 0.0125842 44.2449 0.292014 43.5604 0.657338Z" fill="url(#paint0_linear_1921_2535)"/>
<defs>
<linearGradient id="paint0_linear_1921_2535" x1="7.53425" y1="6.61042" x2="42.0311" y2="12.3936" gradientUnits="userSpaceOnUse">
<stop stop-color="#F5F5F5"/>
<stop offset="0.477732" stop-color="#DEBAF4"/>
<stop offset="1" stop-color="#B0CAFC"/>
</linearGradient>
</defs>
</svg>
