<svg width="70" height="58" viewBox="0 0 70 58" fill="none" xmlns="http://www.w3.org/2000/svg">
<path fill-rule="evenodd" clip-rule="evenodd" d="M23.0224 1.06471C18.5672 3.25635 15.4097 5.38749 12.0001 8.50432C8.29433 11.8917 5.80446 15.0663 3.71778 19.064C1.52329 23.2681 0.516581 26.7602 0.128813 31.5127C-0.505639 39.2903 1.23908 45.3467 5.53257 50.2684C8.27803 53.4157 11.7775 55.0792 16.0905 55.2872C21.636 55.5547 25.7911 53.0982 28.5325 47.9314C29.8004 45.5414 30.1675 44.2237 30.2974 41.5944C30.4287 38.9413 30.1906 37.5816 29.1605 35.1003C27.444 30.9652 23.6156 27.8348 19.0828 26.8604C16.9388 26.3994 13.9916 26.4561 12.3834 26.9889C11.6649 27.2271 11.0573 27.3995 11.0336 27.372C10.9113 27.2321 11.9788 23.4508 12.5477 22.0088C14.9748 15.8561 19.6358 10.6991 26.1435 6.96681C27.0474 6.44831 27.9519 5.91432 28.1531 5.78005C28.5007 5.54836 28.4383 5.39908 26.9208 2.83678C26.0419 1.35219 25.235 0.134661 25.1279 0.131031C25.0208 0.127592 24.0734 0.547561 23.0224 1.06471ZM62.5443 2.85679C48.2179 9.63612 39.1772 22.4787 39.249 35.948C39.279 41.5599 40.411 45.7249 43.004 49.7633C45.0738 52.9869 47.3051 54.887 50.5662 56.2031C52.0292 56.7934 52.6323 56.9277 54.5978 57.1007C59.954 57.5722 63.6632 55.955 66.5549 51.8874C68.6969 48.8746 69.6294 46.0972 69.6254 42.7427C69.6189 37.3959 66.9916 32.8391 62.4615 30.3176C60.145 29.0283 58.8824 28.6971 55.6848 28.5394C53.0909 28.4116 52.8481 28.4316 51.7089 28.8653C51.0416 29.1193 50.4595 29.2858 50.4152 29.2354C50.2661 29.0647 50.9326 26.4033 51.576 24.6001C53.6911 18.6728 57.7218 13.7959 63.7139 9.91393C64.6962 9.27768 66.0327 8.47945 66.6835 8.14046C67.3262 7.8057 67.5554 6.99957 67.1851 6.37673L66.2691 4.83654C65.3902 3.35846 64.5942 2.11827 64.5002 2.08057C64.4064 2.04288 63.5261 2.39209 62.5443 2.85679Z" fill="url(#paint0_linear_1966_4965)"/>
<defs>
<linearGradient id="paint0_linear_1966_4965" x1="64.3721" y1="-27.2652" x2="100.399" y2="24.3471" gradientUnits="userSpaceOnUse">
<stop stop-color="#295A92"/>
<stop offset="0.485813" stop-color="#9D55C9"/>
<stop offset="1" stop-color="#0F73B7"/>
</linearGradient>
</defs>
</svg>
