<svg width="140" height="140" viewBox="0 0 140 140" fill="none" xmlns="http://www.w3.org/2000/svg">
<path fill-rule="evenodd" clip-rule="evenodd" d="M41.5047 0.50975C41.0508 0.877223 40.7874 1.5879 40.5074 3.19919C40.0732 5.6998 39.2086 7.36218 37.5748 8.838C35.9992 10.2613 34.95 10.7425 32.49 11.1696C29.2328 11.7352 29.3565 11.392 29.3565 19.8706C29.3565 30.7246 30.2809 36.9561 33.1934 45.7329C37.4425 58.5371 45.5282 70.421 55.8902 79.0916C60.4565 82.9128 68.492 88.0684 69.8808 88.0684C71.2679 88.0684 76.0278 85.2621 81.2948 81.3396C85.0465 78.5454 92.1485 71.5891 94.917 67.9971C100.741 60.4408 105.385 51.3449 107.798 42.7694C109.968 35.0595 110.651 29.5739 110.651 19.8706C110.651 11.392 110.775 11.7352 107.518 11.1696C105.058 10.7425 104.008 10.2613 102.433 8.838C100.799 7.36218 99.9344 5.6998 99.5003 3.19919C98.8833 -0.352766 102.244 0.0104729 70.0038 0.0104729C43.7538 0.0104729 42.0853 0.0398256 41.5047 0.50975ZM95.3918 6.21969C96.7408 10.5427 99.8255 13.6902 104.159 15.1652L105.994 15.7898L105.958 21.6592C105.903 30.5547 104.987 36.4453 102.476 44.0612C98.5186 56.0658 91.3254 66.8044 81.7586 74.9898C78.695 77.611 74.2741 80.761 71.492 82.3051L70.016 83.1242L68.7218 82.4211C68.0101 82.0345 66.1127 80.829 64.5057 79.7424C47.8242 68.4639 36.8869 50.4606 34.4139 30.2098C34.2339 28.7351 34.0701 24.8801 34.0501 21.6428L34.014 15.7568L35.6235 15.2566C39.7277 13.9809 43.2412 10.5721 44.4708 6.67268C44.7209 5.88015 44.9752 5.07239 45.0362 4.87765C45.1245 4.59598 50.2625 4.53812 70.0273 4.59541L94.9077 4.66738L95.3918 6.21969ZM48.6055 9.23426C48.2417 9.38017 39.824 19.7295 38.8211 21.2643C38.359 21.9719 38.3226 22.4678 38.4795 25.9212C39.2428 42.7214 46.5145 58.6319 58.8896 70.5793C62.0079 73.5896 68.3935 78.6801 69.3687 78.9332C70.4707 79.2191 71.184 78.8384 74.8025 76.0316C79.2446 72.586 85.3115 66.5258 88.1814 62.6671C96.3126 51.7346 100.939 38.9987 101.529 25.9212C101.685 22.4689 101.649 21.9716 101.187 21.2643C100.014 19.4696 91.7525 9.38977 91.3172 9.22297C90.758 9.00847 49.1421 9.01947 48.6055 9.23426ZM93.1311 18.5424L97.1173 23.527L96.9488 25.6689C95.7099 41.407 90.1364 54.3442 79.8662 65.3218C77.3949 67.9635 70.6471 73.6743 69.9976 73.6743C69.6022 73.6743 65.3339 70.2573 62.7452 67.8684C58.0326 63.5197 53.1993 57.1513 50.0144 51.0954C46.1407 43.729 43.7016 34.8571 43.0608 25.8044L42.8991 23.516L46.8811 18.5368L50.8632 13.5578H70.0038H89.1445L93.1311 18.5424ZM84.7605 20.5158C84.5711 20.5926 80.1361 25.4124 74.905 31.2262L65.394 41.7968L62.5177 38.9668C58.5396 35.0527 58.8769 35.0064 53.7133 40.1694C50.0973 43.7849 49.6801 44.3019 49.6801 45.1667C49.6801 46.0509 50.2856 46.7387 56.9487 53.4218C60.9462 57.4319 64.5029 60.7851 64.8523 60.8737C65.2015 60.9624 65.7884 60.9593 66.1562 60.867C66.5624 60.7651 71.9679 55.1305 79.917 46.5237C87.1178 38.7272 93.4218 31.855 93.9265 31.2524C95.5634 29.2971 95.4141 28.9669 90.8108 24.3641C87.38 20.9338 86.6526 20.3349 85.9416 20.3538C85.4818 20.366 84.9502 20.4391 84.7605 20.5158ZM89.1984 29.4035C89.1984 29.513 83.8429 35.4016 77.2975 42.4897L65.3963 55.3769L60.2922 50.2735L55.1882 45.1704L56.9433 43.4154L58.6985 41.6605L61.6288 44.5432C64.561 47.4283 65.1451 47.7565 66.4528 47.2547C66.6987 47.1604 71.1778 42.3288 76.4061 36.5181L85.9122 25.9528L87.5553 27.5785C88.4589 28.4727 89.1984 29.294 89.1984 29.4035ZM43.0574 83.9813C37.2248 84.9316 32.6802 86.7117 26.6749 90.3988L22.723 92.8249L22.5819 89.8564C22.3738 85.4828 23.2921 85.8105 11.2469 85.8105H1.38568L0.692982 86.5034L0 87.196V112.905V138.614L0.692982 139.307L1.38568 140H11.2909H21.1962L21.8889 139.307C22.5071 138.689 22.5819 138.375 22.5819 136.399V134.183L25.7575 131.07C30.5211 126.401 32.7324 125.122 37.1562 124.475C40.6765 123.96 42.5553 124.37 49.6711 127.204C63.1632 132.576 65.0869 133.06 72.9677 133.06C77.4457 133.06 78.8054 132.956 81.2067 132.435C84.8133 131.653 88.3618 130.422 91.4566 128.879C96.0091 126.609 136.193 102.985 137.269 101.946C139.795 99.5066 140.702 95.2671 139.425 91.8806C138.551 89.564 136.253 87.2666 133.937 86.3939C132.52 85.8599 131.855 85.7772 129.846 85.8842C127.539 86.0069 126.941 86.207 114.321 91.0804L101.195 96.1491L100.432 94.8235C99.439 93.0976 97.6647 91.6006 95.7732 90.893C94.4118 90.3836 93.5759 90.3263 87.524 90.3263C75.6104 90.3263 73.3779 89.9317 61.959 85.8091C60.5618 85.3045 58.2754 84.6466 56.8781 84.3471C53.4327 83.6079 46.478 83.4239 43.0574 83.9813ZM55.0433 88.7836C56.363 88.9998 58.5224 89.5544 59.842 90.0164C73.0583 94.6428 72.7975 94.5926 84.6821 94.813C93.1839 94.9708 93.9246 95.0247 94.7928 95.5477C97.6393 97.2628 97.6393 101.453 94.7928 103.168C93.8912 103.711 93.2798 103.736 78.5426 103.812L63.2293 103.892V106.141V108.389H78.7436C93.9364 108.389 94.2918 108.377 95.883 107.782C97.9788 106.997 100.188 104.845 100.909 102.883C101.194 102.108 101.565 101.326 101.734 101.144C102.127 100.722 128.236 90.713 129.589 90.4657C131.038 90.2007 132.909 90.7925 133.967 91.8504C135.004 92.887 135.612 94.7526 135.342 96.0653C134.885 98.2789 134.479 98.5778 122.048 105.834C86.7729 126.426 87.5215 126.023 81.9691 127.426C75.8511 128.973 68.7452 128.862 62.7297 127.128C61.8399 126.871 57.675 125.295 53.4739 123.625C44.3299 119.989 42.6052 119.549 38.2771 119.747C32.9391 119.99 28.7123 121.831 24.6659 125.674L22.5819 127.653L22.5909 113.012L22.6 98.37L27.6013 95.2804C33.2078 91.8165 36.3007 90.3661 40.3112 89.3198C45.0732 88.0777 49.7016 87.9092 55.0433 88.7836ZM18.0655 112.905V135.484H11.2909H4.51638V112.905V90.3263H11.2909H18.0655V112.905Z" fill="#F5F5F5"/>
</svg>
