<svg width="66" height="65" viewBox="0 0 66 65" fill="none" xmlns="http://www.w3.org/2000/svg">
<path fill-rule="evenodd" clip-rule="evenodd" d="M19.77 0.23667C19.5593 0.407282 19.437 0.737237 19.307 1.48534C19.1054 2.64634 18.704 3.41816 17.9455 4.10336C17.2139 4.76418 16.7268 4.9876 15.5846 5.18587C14.0724 5.44847 14.1298 5.28912 14.1298 9.22565C14.1298 14.265 14.559 17.1582 15.9112 21.2331C17.884 27.1779 21.6381 32.6954 26.449 36.7211C28.5691 38.4952 32.2998 40.8889 32.9446 40.8889C33.5886 40.8889 35.7986 39.586 38.244 37.7648C39.9859 36.4675 43.2832 33.2378 44.5686 31.5701C47.2726 28.0618 49.4288 23.8387 50.5492 19.8572C51.5565 16.2776 51.8738 13.7308 51.8738 9.22565C51.8738 5.28912 51.9312 5.44847 50.4189 5.18587C49.2768 4.9876 48.7897 4.76418 48.0581 4.10336C47.2996 3.41816 46.8981 2.64634 46.6966 1.48534C46.4101 -0.163784 47.9706 0.00486243 33.0018 0.00486243C20.8143 0.00486243 20.0396 0.0184905 19.77 0.23667ZM44.7891 2.88771C45.4154 4.89483 46.8475 6.35617 48.8595 7.04098L49.7114 7.33097L49.6946 10.056C49.669 14.1861 49.2442 16.921 48.0783 20.457C46.2408 26.0306 42.9011 31.0163 38.4593 34.8167C37.037 36.0337 34.9844 37.4962 33.6927 38.2131L33.0074 38.5934L32.4065 38.2669C32.0761 38.0874 31.1952 37.5278 30.4491 37.0233C22.7041 31.7868 17.6261 23.4281 16.4779 14.026C16.3943 13.3413 16.3183 11.5515 16.309 10.0484L16.2922 7.31564L17.0395 7.08344C18.945 6.49114 20.5763 4.90846 21.1472 3.09803C21.2633 2.73007 21.3813 2.35504 21.4097 2.26462C21.4507 2.13385 23.8362 2.10698 33.0127 2.13358L44.5643 2.167L44.7891 2.88771ZM23.0669 4.28733C22.8979 4.35508 18.9897 9.16014 18.5241 9.87272C18.3095 10.2012 18.2926 10.4315 18.3655 12.0349C18.7199 19.8349 22.096 27.222 27.8416 32.769C29.2894 34.1666 32.2541 36.53 32.7069 36.6476C33.2185 36.7803 33.5497 36.6035 35.2297 35.3004C37.2921 33.7006 40.1089 30.887 41.4414 29.0954C45.2166 24.0196 47.3644 18.1065 47.6386 12.0349C47.7111 10.432 47.694 10.2011 47.4795 9.87272C46.935 9.03945 43.0994 4.35954 42.8973 4.28209C42.6376 4.1825 23.316 4.18761 23.0669 4.28733ZM43.7394 8.60899L45.5902 10.9233L45.512 11.9177C44.9368 19.2247 42.3491 25.2312 37.5807 30.328C36.4333 31.5545 33.3005 34.2059 32.9989 34.2059C32.8153 34.2059 30.8336 32.6194 29.6317 31.5103C27.4437 29.4913 25.1997 26.5345 23.721 23.7228C21.9225 20.3027 20.79 16.1837 20.4925 11.9806L20.4174 10.9181L22.2662 8.60637L24.115 6.29471H33.0018H41.8885L43.7394 8.60899ZM39.8531 9.52521C39.7652 9.56085 37.706 11.7986 35.2773 14.4979L30.8615 19.4056L29.5261 18.0917C27.6791 16.2745 27.8357 16.253 25.4383 18.6501C23.7595 20.3287 23.5658 20.5687 23.5658 20.9702C23.5658 21.3808 23.8469 21.7001 26.9405 24.803C28.7965 26.6648 30.4478 28.2217 30.61 28.2628C30.7721 28.304 31.0446 28.3025 31.2154 28.2597C31.404 28.2124 33.9137 25.5963 37.6043 21.6003C40.9476 17.9805 43.8744 14.7898 44.1087 14.51C44.8687 13.6022 44.7994 13.4489 42.6622 11.3119C41.0693 9.71928 40.7316 9.44121 40.4014 9.44999C40.188 9.45563 39.9412 9.48957 39.8531 9.52521ZM41.9136 13.6516C41.9136 13.7025 39.427 16.4364 36.3881 19.7273L30.8626 25.7107L28.4928 23.3413L26.1231 20.972L26.938 20.1572L27.7529 19.3424L29.1134 20.6808C30.4748 22.0203 30.7459 22.1727 31.3531 21.9397C31.4673 21.8959 33.5468 19.6527 35.9743 16.9548L40.3878 12.0495L41.1507 12.8043C41.5702 13.2194 41.9136 13.6008 41.9136 13.6516ZM20.491 38.9913C17.783 39.4325 15.673 40.259 12.8848 41.9709L11.05 43.0973L10.9844 41.719C10.8879 39.6885 11.3142 39.8406 5.72178 39.8406H1.14335L0.821741 40.1623L0.5 40.4839V52.4203V64.3567L0.821741 64.6783L1.14335 65H5.74222H10.3411L10.6627 64.6783C10.9497 64.3915 10.9844 64.2455 10.9844 63.3279V62.2992L12.4588 60.8541C14.6705 58.6863 15.6972 58.0923 17.7511 57.792C19.3855 57.5531 20.2578 57.7432 23.5616 59.0588C29.8258 61.553 30.7189 61.7776 34.3779 61.7776C36.4569 61.7776 37.0882 61.7298 38.2031 61.4879C39.8776 61.1247 41.5251 60.5529 42.962 59.8367C45.0757 58.7829 63.7325 47.8147 64.2322 47.3321C65.4046 46.1995 65.8261 44.2312 65.2329 42.6588C64.8272 41.5833 63.7603 40.5166 62.685 40.1114C62.0272 39.8635 61.7184 39.8251 60.7856 39.8748C59.7146 39.9318 59.4367 40.0247 53.5775 42.2873L47.4834 44.6407L47.1292 44.0252C46.6681 43.2239 45.8443 42.5288 44.9661 42.2003C44.334 41.9638 43.946 41.9372 41.1361 41.9372C35.6048 41.9372 34.5683 41.754 29.2667 39.8399C28.618 39.6056 27.5564 39.3002 26.9077 39.1612C25.308 38.818 22.0791 38.7325 20.491 38.9913ZM26.0558 41.221C26.6685 41.3213 27.6711 41.5788 28.2838 41.7933C34.4199 43.9413 34.2988 43.918 39.8167 44.0203C43.7639 44.0936 44.1078 44.1186 44.511 44.3614C45.8325 45.1577 45.8325 47.1031 44.511 47.8995C44.0924 48.1517 43.8085 48.163 36.9662 48.1986L29.8564 48.2357V49.2797V50.3237H37.0595C44.1133 50.3237 44.2783 50.3178 45.0171 50.0414C45.9902 49.6774 47.0157 48.6778 47.3505 47.767C47.4828 47.4074 47.6552 47.0442 47.7337 46.9598C47.9162 46.7639 60.0383 42.1167 60.6664 42.0019C61.339 41.8789 62.2078 42.1537 62.699 42.6448C63.1803 43.1261 63.4628 43.9923 63.3372 44.6017C63.1253 45.6295 62.9366 45.7682 57.165 49.1374C40.7874 58.6978 41.135 58.5107 38.5571 59.1622C35.7166 59.8802 32.4174 59.829 29.6245 59.0236C29.2114 58.9045 27.2777 58.1725 25.3272 57.3971C21.0818 55.7094 20.281 55.5051 18.2715 55.5967C15.7931 55.7098 13.8307 56.5643 11.952 58.3487L10.9844 59.2676L10.9886 52.4697L10.9928 45.6718L13.3149 44.2373C15.9179 42.6291 17.3539 41.9557 19.2159 41.4699C21.4268 40.8932 23.5757 40.815 26.0558 41.221ZM8.88756 52.4203V62.9034H5.74222H2.59689V52.4203V41.9372H5.74222H8.88756V52.4203Z" fill="#310A49"/>
</svg>
