<svg width="15" height="20" viewBox="0 0 15 20" fill="none" xmlns="http://www.w3.org/2000/svg">
<path fill-rule="evenodd" clip-rule="evenodd" d="M7.17316 11.3775C7.03629 11.4276 6.28296 12.1778 3.58296 14.9527C1.70361 16.8842 0.137312 18.5201 0.10225 18.5879C-0.087937 18.956 -0.00820237 19.4028 0.303056 19.713C0.578989 19.988 0.860187 20.0606 1.22494 19.9512C1.45958 19.8808 1.54848 19.7943 4.48308 16.7801L7.5 13.6814L10.5169 16.7801C13.4515 19.7943 13.5404 19.8808 13.7751 19.9512C14.1398 20.0606 14.421 19.988 14.6969 19.713C15.0082 19.4029 15.0879 18.9563 14.8979 18.5879C14.8629 18.5201 13.2877 16.8767 11.3975 14.9361C8.43531 11.8948 7.93654 11.4009 7.78523 11.3591C7.5538 11.2951 7.3841 11.3002 7.17316 11.3775Z" fill="white" fill-opacity="0.8"/>
<path fill-rule="evenodd" clip-rule="evenodd" d="M7.17316 0.0625404C7.03629 0.112689 6.28296 0.862894 3.58296 3.6378C1.70361 5.56928 0.137312 7.20511 0.10225 7.27295C-0.087937 7.64106 -0.00820237 8.08789 0.303056 8.39808C0.578989 8.67302 0.860187 8.74569 1.22494 8.63623C1.45958 8.56586 1.54848 8.47933 4.48308 5.46515L7.5 2.36642L10.5169 5.46515C13.4515 8.47933 13.5404 8.56586 13.7751 8.63623C14.1398 8.74569 14.421 8.67302 14.6969 8.39808C15.0082 8.08793 15.0879 7.64133 14.8979 7.27295C14.8629 7.20511 13.2877 5.56179 11.3975 3.62114C8.43531 0.579875 7.93654 0.0859671 7.78523 0.0441236C7.5538 -0.019838 7.3841 -0.0147371 7.17316 0.0625404Z" fill="white"/>
</svg>
