<svg width="72" height="63" viewBox="0 0 72 63" fill="none" xmlns="http://www.w3.org/2000/svg">
<path fill-rule="evenodd" clip-rule="evenodd" d="M18.244 0.082904C17.2205 0.191554 14.9704 0.690643 13.9152 1.04295C10.9245 2.04183 8.3283 3.66443 5.97521 6.00538C3.5618 8.40619 1.99152 10.8931 0.981543 13.9138C0.137006 16.4391 -0.00574608 17.4013 0.000172582 20.5241C0.00482296 23.0502 0.042026 23.482 0.375021 24.8837C1.05891 27.7617 2.37525 30.5688 4.09702 32.8215C4.46735 33.306 8.31857 37.2667 12.6554 41.6232C25.4943 54.5205 24.1837 53.2593 24.7472 53.2593C25.3549 53.2593 25.8537 52.784 25.8537 52.2052C25.8537 51.7659 26.6515 52.5924 12.4584 38.3287C5.73 31.5667 5.19014 30.941 3.9475 28.4666C1.85271 24.2957 1.52719 18.7899 3.11508 14.3929C5.21804 8.56966 10.046 4.2067 16.0598 2.69499C18.0088 2.20501 21.6343 2.08262 23.7638 2.43493C27.3348 3.02571 31.1896 4.81836 33.6748 7.04407L34.3794 7.67509L30.0609 11.9967C27.1749 14.8848 25.637 16.5276 25.4246 16.9492C24.9599 17.8719 24.8996 19.19 25.2768 20.1834C26.0678 22.2671 28.9245 23.7242 31.3939 23.3034C32.8528 23.0547 33.769 22.5084 35.5575 20.82C37.8791 18.6287 38.9176 18.2296 42.3415 18.2132C44.8546 18.2011 46.5389 17.5441 48.542 15.7944C50.1184 14.4173 52.1473 12.3069 52.2727 11.9137C52.4753 11.2783 51.8477 10.5003 51.1324 10.5003C51.0143 10.5003 49.8873 11.4954 48.6279 12.7117C45.5146 15.7185 44.6978 16.1055 41.4538 16.1104C38.2364 16.1154 36.6492 16.7652 34.2373 19.0652C33.3745 19.8878 32.4512 20.6776 32.1853 20.8202C31.4968 21.1897 29.5168 21.1889 28.768 20.8189C27.5728 20.2284 27.0137 19.257 27.2868 18.246C27.4013 17.8216 28.2752 16.8729 31.82 13.3239C34.2353 10.9058 36.8456 8.36119 37.6206 7.6692C41.801 3.93654 46.1642 2.22885 51.5212 2.22885C55.4285 2.22885 58.7576 3.21931 61.859 5.30455C63.0097 6.07828 63.6792 6.0473 64.0303 5.20403C64.3107 4.5304 64.0394 4.13394 62.706 3.26936C58.0859 0.273287 52.5158 -0.694048 46.7217 0.493531C43.4148 1.17123 39.8377 2.94425 37.0217 5.30105L36 6.15623L34.9784 5.30105C31.6394 2.50657 27.6859 0.747001 23.5005 0.192816C22.1103 0.00874172 19.4647 -0.0466348 18.244 0.082904ZM65.8643 7.40521C65.6377 7.63064 65.4527 7.93024 65.4531 8.07113C65.454 8.34227 65.5282 8.46634 66.6667 10.0992C68.8062 13.1673 69.851 16.5045 69.8651 20.3138C69.8768 23.5073 69.2701 26.0896 67.8725 28.7955C66.7912 30.8888 65.4722 32.4422 61.0871 36.7866L56.9835 40.8522L50.4402 34.2631C46.8413 30.6391 43.6827 27.3585 43.4212 26.973C42.7132 25.9295 42.2255 24.5718 42.0702 23.2119C41.9942 22.5468 41.8618 21.8719 41.7759 21.7122C41.5575 21.3062 41.0323 21.1348 40.535 21.3074C39.9048 21.5259 39.7492 21.9581 39.8473 23.2181C39.953 24.5742 40.3657 25.9368 41.1123 27.3936C41.6578 28.4578 42.0452 28.8733 48.6949 35.5248C55.0091 41.8407 55.7192 42.5965 55.8703 43.1603C56.4103 45.1764 54.7887 46.853 52.6728 46.4664C52.1991 46.3799 51.4163 45.6551 46.0674 40.3507C41.8523 36.1707 39.9072 34.3332 39.6974 34.3332C38.9909 34.3332 38.3957 34.8945 38.3957 35.5606C38.3957 35.6887 41.5557 38.9504 45.4179 42.809C51.5918 48.9769 52.4612 49.8983 52.6148 50.4347C53.189 52.4397 51.281 54.3077 49.2994 53.6806C48.8604 53.5418 47.2453 52.0116 41.0689 45.8831C34.0591 38.9279 33.3441 38.2586 32.9243 38.2586C32.6237 38.2586 32.3443 38.3779 32.1184 38.6028C31.3635 39.3536 31.1564 39.1042 39.2175 47.1553C45.5963 53.5262 46.6862 54.6737 46.8272 55.1682C47.0278 55.8712 47.0292 55.9936 46.8447 56.6546C46.4349 58.1227 44.7595 58.9476 43.3586 58.371C42.996 58.2217 40.4044 55.7402 34.9402 50.3099C27.7243 43.1387 27.0061 42.4644 26.5843 42.4644C26.2821 42.4644 26.0033 42.5833 25.7769 42.8086C25.0254 43.5561 24.8963 43.396 31.8288 50.3117C35.3474 53.822 38.3279 56.8959 38.452 57.1427C38.7106 57.6573 38.747 58.666 38.5276 59.2435C38.344 59.727 37.751 60.3664 37.2401 60.6319C36.7524 60.8854 35.5581 60.8864 34.9738 60.6336C34.7244 60.5258 33.2209 59.1379 31.6328 57.5494C28.9176 54.8338 28.7141 54.6612 28.2257 54.6612C27.8323 54.6612 27.6353 54.751 27.4142 55.0306C26.8226 55.7787 26.9019 55.8986 30.1056 59.0982C33.7516 62.7399 34.1426 62.9956 36.0705 62.9999C37.0731 63.0022 37.4752 62.9399 37.9901 62.7032C39.1858 62.153 40.2513 60.9904 40.6405 59.8107L40.8149 59.2824L41.2447 59.6422C42.2789 60.508 43.6971 60.8836 45.1031 60.6643C47.133 60.3476 48.8211 58.643 49.0556 56.6733L49.1395 55.9684L50.1609 55.9618C52.1256 55.9493 53.9089 54.7099 54.6052 52.8733C55.0023 51.8261 54.9486 50.1281 54.4906 49.2454L54.1901 48.6661L54.8201 48.4907C55.5349 48.2917 56.5097 47.6431 57.0299 47.0207C57.7686 46.1368 58.0307 45.4114 58.0936 44.0766L58.1529 42.8149L62.695 38.2586C65.1931 35.7526 67.5385 33.306 67.9067 32.8215C69.6341 30.5492 70.9426 27.756 71.625 24.8837C71.958 23.482 71.9952 23.0502 71.9999 20.5241C72.0058 17.4212 71.7939 16.0606 70.9216 13.6012C70.1314 11.3733 68.2745 8.19632 67.2721 7.35713C66.7128 6.88888 66.3717 6.90052 65.8643 7.40521ZM57.5568 17.7128C55.2088 19.7971 52.6241 20.8859 49.4293 21.137C48.5754 21.204 47.897 21.328 47.7589 21.4421C47.1461 21.9479 47.2362 22.9279 47.924 23.2397C48.9499 23.7047 52.5611 23.0641 54.9669 21.9902C56.2629 21.4118 58.1549 20.1582 59.1335 19.2296C60.0777 18.3336 60.2124 17.798 59.6304 17.2539C59.068 16.7285 58.5321 16.8471 57.5568 17.7128ZM51.0618 25.7823C50.6951 25.9954 50.4806 26.6549 50.6413 27.0751C50.9776 27.9553 54.5166 29.7174 57.0558 30.269C59.2547 30.7465 63.0121 30.7326 63.5022 30.245C63.8686 29.8805 63.839 29.1257 63.4443 28.7651C63.1571 28.5028 62.9013 28.469 60.7316 28.4062C57.3316 28.3078 55.3989 27.7749 52.9618 26.2645C51.9632 25.6455 51.4995 25.5279 51.0618 25.7823Z" fill="#310A49"/>
</svg>
