<svg width="192" height="173" viewBox="0 0 192 173" fill="none" xmlns="http://www.w3.org/2000/svg">
<g filter="url(#filter0_d_1921_2651)">
<path fill-rule="evenodd" clip-rule="evenodd" d="M51.2889 12.1842C49.0287 12.4257 44.0597 13.5348 41.7295 14.3177C35.1249 16.5374 29.3917 20.1432 24.1952 25.3453C18.8656 30.6804 15.3979 36.2069 13.1676 42.9196C11.3026 48.5314 10.9873 50.6695 11.0004 57.6091C11.0107 63.2228 11.0928 64.1823 11.8282 67.2971C13.3384 73.6927 16.2453 79.9307 20.0476 84.9366C20.8654 86.0133 29.3702 94.8149 38.9474 104.496C67.2998 133.157 64.4057 130.354 65.6501 130.354C66.992 130.354 68.0937 129.298 68.0937 128.012C68.0937 127.035 69.8554 128.872 38.5123 97.1749C23.6538 82.1483 22.4616 80.7579 19.7174 75.2592C15.0914 65.9905 14.3725 53.7554 17.8791 43.9842C22.5232 31.0437 33.1849 21.3482 46.4653 17.9889C50.7695 16.9 58.7757 16.6281 63.4783 17.411C71.3644 18.7238 79.8769 22.7075 85.3653 27.6535L86.9213 29.0557L77.3845 38.6593C71.0112 45.0774 67.6151 48.728 67.1461 49.6648C66.1197 51.7154 65.9866 54.6445 66.8196 56.8521C68.5664 61.4825 74.875 64.7204 80.3282 63.7854C83.55 63.2327 85.5731 62.0187 89.5229 58.2668C94.6496 53.3971 96.9431 52.5101 104.504 52.4737C110.054 52.4469 113.773 50.987 118.197 47.0987C121.678 44.0384 126.159 39.3488 126.436 38.4749C126.883 37.063 125.497 35.3339 123.917 35.3339C123.657 35.3339 121.168 37.5452 118.387 40.2482C111.511 46.9301 109.708 47.79 102.544 47.8009C95.4388 47.8121 91.9338 49.2561 86.6073 54.3672C84.7021 56.195 82.6631 57.9503 82.0759 58.2671C80.5554 59.0883 76.183 59.0864 74.5293 58.2643C71.89 56.9521 70.6552 54.7934 71.2583 52.5466C71.5113 51.6035 73.441 49.4953 81.2692 41.6087C86.6029 36.2352 92.3673 30.5804 94.0788 29.0427C103.311 20.7479 112.946 16.953 124.776 16.953C133.405 16.953 140.756 19.154 147.605 23.7879C150.146 25.5073 151.625 25.4384 152.4 23.5645C153.019 22.0676 152.42 21.1865 149.476 19.2653C139.273 12.6073 126.972 10.4577 114.177 13.0967C106.874 14.6027 98.975 18.5428 92.7563 23.7801L90.5001 25.6805L88.2439 23.7801C80.8703 17.5702 72.1396 13.66 62.897 12.4285C59.827 12.0194 53.9845 11.8964 51.2889 12.1842ZM156.45 28.456C155.95 28.957 155.541 29.6227 155.542 29.9358C155.544 30.5384 155.708 30.8141 158.222 34.4426C162.947 41.2607 165.254 48.6766 165.285 57.1418C165.311 64.2384 163.971 69.977 160.885 75.99C158.497 80.6417 155.584 84.0939 145.901 93.7479L136.839 102.783L122.389 88.1402C114.441 80.0868 107.466 72.7967 106.888 71.94C105.325 69.6212 104.248 66.6039 103.905 63.582C103.737 62.104 103.445 60.6043 103.255 60.2494C102.773 59.3472 101.613 58.9662 100.515 59.3497C99.1231 59.8354 98.7795 60.7959 98.9961 63.5957C99.2295 66.6092 100.141 69.6374 101.79 72.8746C102.994 75.2395 103.85 76.163 118.534 90.944C132.478 104.979 134.047 106.659 134.38 107.912C135.573 112.392 131.992 116.118 127.319 115.259C126.273 115.066 124.544 113.456 112.732 101.668C103.424 92.3793 99.1284 88.2959 98.665 88.2959C97.105 88.2959 95.7905 89.5433 95.7905 91.0235C95.7905 91.3082 102.769 98.5565 111.298 107.131C124.932 120.838 126.852 122.885 127.191 124.077C128.459 128.533 124.246 132.684 119.87 131.29C118.9 130.982 115.333 127.581 101.694 113.963C86.2139 98.5064 84.6349 97.0191 83.7078 97.0191C83.044 97.0191 82.4269 97.2842 81.9281 97.7839C80.261 99.4525 79.8038 98.8983 97.6054 116.789C111.692 130.947 114.099 133.497 114.41 134.596C114.853 136.158 114.856 136.43 114.449 137.899C113.544 141.162 109.844 142.995 106.75 141.713C105.95 141.382 100.226 135.867 88.1595 123.8C72.2245 107.864 70.6384 106.365 69.7069 106.365C69.0397 106.365 68.4239 106.629 67.9241 107.13C66.2645 108.791 65.9794 108.436 81.2885 123.804C89.0589 131.605 95.6408 138.435 95.9149 138.984C96.486 140.127 96.5663 142.369 96.0817 143.652C95.6762 144.727 94.3667 146.148 93.2386 146.738C92.1615 147.301 89.5241 147.303 88.2339 146.741C87.6831 146.502 84.3629 143.418 80.8557 139.887C74.8598 133.853 74.4104 133.469 73.3318 133.469C72.4629 133.469 72.0279 133.669 71.5396 134.29C70.2332 135.953 70.4084 136.219 77.4832 143.329C85.5349 151.422 86.3981 151.99 90.6557 152C92.8698 152.005 93.7577 151.867 94.8948 151.34C97.5353 150.118 99.8883 147.534 100.748 144.913L101.133 143.739L102.082 144.538C104.366 146.462 107.498 147.297 110.603 146.81C115.085 146.106 118.813 142.318 119.331 137.941L119.516 136.374L121.772 136.36C126.111 136.332 130.049 133.578 131.586 129.496C132.463 127.169 132.345 123.396 131.333 121.434L130.67 120.147L132.061 119.757C133.639 119.315 135.792 117.874 136.941 116.49C138.572 114.526 139.151 112.914 139.29 109.948L139.421 107.144L149.452 97.0191C154.968 91.4503 160.147 86.0133 160.961 84.9366C164.775 79.8871 167.665 73.68 169.172 67.2971C169.907 64.1823 169.989 63.2228 170 57.6091C170.013 50.7138 169.545 47.6903 167.618 42.2249C165.874 37.2739 161.773 30.2141 159.559 28.3492C158.324 27.3086 157.571 27.3345 156.45 28.456ZM138.105 51.3618C132.919 55.9935 127.212 58.4132 120.156 58.9712C118.271 59.1201 116.772 59.3955 116.467 59.6491C115.114 60.7731 115.313 62.9508 116.832 63.6437C119.098 64.6771 127.073 63.2536 132.385 60.8672C135.247 59.5818 139.425 56.796 141.587 54.7323C143.672 52.7413 143.969 51.5512 142.684 50.3421C141.442 49.1744 140.258 49.438 138.105 51.3618ZM123.761 69.2941C122.952 69.7676 122.478 71.2331 122.833 72.1668C123.576 74.123 131.391 78.0387 136.998 79.2643C141.854 80.3255 150.152 80.2946 151.234 79.2111C152.043 78.4011 151.978 76.7237 151.106 75.9224C150.472 75.3396 149.907 75.2645 145.116 75.1249C137.607 74.9062 133.339 73.722 127.957 70.3655C125.752 68.99 124.728 68.7286 123.761 69.2941Z" fill="#F5F5F5"/>
</g>
<defs>
<filter id="filter0_d_1921_2651" x="0.153748" y="0.0691223" width="191.539" height="172.539" filterUnits="userSpaceOnUse" color-interpolation-filters="sRGB">
<feFlood flood-opacity="0" result="BackgroundImageFix"/>
<feColorMatrix in="SourceAlpha" type="matrix" values="0 0 0 0 0 0 0 0 0 0 0 0 0 0 0 0 0 0 127 0" result="hardAlpha"/>
<feOffset dx="5.42313" dy="4.3385"/>
<feGaussianBlur stdDeviation="8.13469"/>
<feComposite in2="hardAlpha" operator="out"/>
<feColorMatrix type="matrix" values="0 0 0 0 0.615431 0 0 0 0 0.334688 0 0 0 0 0.7875 0 0 0 0.2 0"/>
<feBlend mode="normal" in2="BackgroundImageFix" result="effect1_dropShadow_1921_2651"/>
<feBlend mode="normal" in="SourceGraphic" in2="effect1_dropShadow_1921_2651" result="shape"/>
</filter>
</defs>
</svg>
