<svg width="24" height="24" viewBox="0 0 24 24" fill="none" xmlns="http://www.w3.org/2000/svg">
<g clip-path="url(#clip0_986_1046)">
<path d="M12 0C18.627 0 24 5.373 24 12C24 18.627 18.627 24 12 24C5.373 24 0 18.627 0 12C0 5.373 5.373 0 12 0ZM12.294 7H11.705L10.604 7.013C9.124 7.037 6.895 7.105 6.139 7.298C5.82678 7.37406 5.53999 7.53074 5.3073 7.75238C5.0746 7.97402 4.90416 8.25285 4.813 8.561C4.632 9.205 4.555 10.251 4.523 11.021L4.501 11.836V12.164L4.509 12.59C4.531 13.354 4.599 14.678 4.813 15.439C4.985 16.053 5.493 16.537 6.139 16.702C6.875 16.89 9.006 16.959 10.485 16.985L11.89 17L13.049 16.992C14.502 16.973 17.042 16.91 17.86 16.702C18.1724 16.6261 18.4594 16.4695 18.6923 16.2478C18.9252 16.0262 19.0958 15.7473 19.187 15.439C19.397 14.689 19.467 13.391 19.489 12.622L19.499 12.094L19.496 11.691C19.484 11.021 19.43 9.426 19.186 8.561C19.0948 8.25285 18.9244 7.97402 18.6917 7.75238C18.459 7.53074 18.1722 7.37406 17.86 7.298C17.199 7.129 15.41 7.056 13.982 7.024L12.294 7ZM10.466 9.89L14.386 12L10.466 14.11V9.89Z" fill="url(#paint0_linear_986_1046)"/>
</g>
<defs>
<linearGradient id="paint0_linear_986_1046" x1="3.61644" y1="4" x2="20.3445" y2="6.22457" gradientUnits="userSpaceOnUse">
<stop stop-color="#F5F5F5"/>
<stop offset="0.477732" stop-color="#DEBAF4"/>
<stop offset="1" stop-color="#B0CAFC"/>
</linearGradient>
<clipPath id="clip0_986_1046">
<rect width="24" height="24" fill="white"/>
</clipPath>
</defs>
</svg>
