<svg width="37" height="37" viewBox="0 0 37 37" fill="none" xmlns="http://www.w3.org/2000/svg">
<g clip-path="url(#clip0_3056_3792)">
<mask id="mask0_3056_3792" style="mask-type:luminance" maskUnits="userSpaceOnUse" x="0" y="0" width="37" height="37">
<path d="M36.129 0H0V36.129H36.129V0Z" fill="white"/>
</mask>
<g mask="url(#mask0_3056_3792)">
<path d="M18.0645 0C28.0406 0 36.129 8.08839 36.129 18.0645C36.129 28.0406 28.0406 36.129 18.0645 36.129C8.08839 36.129 0 28.0406 0 18.0645C0 8.08839 8.08839 0 18.0645 0ZM18.5071 10.5376H17.6204L15.963 10.5572C13.7351 10.5933 10.3796 10.6957 9.24151 10.9862C8.7715 11.1007 8.33977 11.3366 7.98948 11.6702C7.63918 12.0039 7.38261 12.4236 7.24538 12.8875C6.9729 13.857 6.85699 15.4316 6.80882 16.5908L6.7757 17.8176V18.3114L6.78774 18.9527C6.82086 20.1028 6.92323 22.0959 7.24538 23.2415C7.5043 24.1658 8.26903 24.8944 9.24151 25.1428C10.3495 25.4258 13.5574 25.5297 15.7839 25.5688L17.8989 25.5914L19.6437 25.5794C21.831 25.5508 25.6546 25.4559 26.886 25.1428C27.3563 25.0285 27.7883 24.7928 28.1389 24.4591C28.4895 24.1255 28.7464 23.7056 28.8837 23.2415C29.1998 22.1125 29.3052 20.1585 29.3383 19.0009L29.3533 18.206L29.3488 17.5994C29.3308 16.5908 29.2495 14.1897 28.8822 12.8875C28.7449 12.4236 28.4883 12.0039 28.138 11.6702C27.7877 11.3366 27.356 11.1007 26.886 10.9862C25.891 10.7318 23.1978 10.6219 21.0482 10.5738L18.5071 10.5376ZM15.7553 14.8882L21.6563 18.0645L15.7553 21.2409V14.8882Z" fill="url(#paint0_linear_3056_3792)"/>
</g>
</g>
<defs>
<linearGradient id="paint0_linear_3056_3792" x1="31.6694" y1="-19.0346" x2="57.5322" y2="7.53122" gradientUnits="userSpaceOnUse">
<stop stop-color="#295A92"/>
<stop offset="0.485813" stop-color="#9D55C9"/>
<stop offset="1" stop-color="#0F73B7"/>
</linearGradient>
<clipPath id="clip0_3056_3792">
<rect width="36.129" height="36.129" fill="white"/>
</clipPath>
</defs>
</svg>
